<?xml version="1.0" encoding="UTF-8" standalone="no"?>
<!DOCTYPE svg PUBLIC "-//W3C//DTD SVG 1.0//EN" "http://www.w3.org/TR/2001/PR-SVG-20010719/DTD/svg10.dtd">
<svg width="74cm" height="17cm" viewBox="-286 524 1471 322" xmlns="http://www.w3.org/2000/svg" xmlns:xlink="http://www.w3.org/1999/xlink">
  <g id="Background"/>
  <g id="Background"/>
  <g id="Background"/>
  <g id="Background"/>
  <g id="Background"/>
  <g id="Background"/>
  <g id="Boston Scientific Vercise directed">
    <g>
      <ellipse style="fill: #d8e5e5; fill-opacity: 1; stroke-opacity: 1; stroke-width: 2; stroke: #000000" cx="-2.681" cy="670.125" rx="37.319" ry="49.875"/>
      <text font-size="12.8" style="fill: #000000; fill-opacity: 1; stroke: none;text-anchor:middle;font-family:sans-serif;font-style:normal;font-weight:normal" x="-2.681" y="674.006">
        <tspan x="-2.681" y="674.006"></tspan>
      </text>
    </g>
    <g>
      <rect style="fill: #eab12f; fill-opacity: 1; stroke-opacity: 1; stroke-width: 2; stroke: #000000" x="0" y="620" width="1180" height="100" rx="0" ry="0"/>
      <text font-size="12.8" style="fill: #000000; fill-opacity: 1; stroke: none;text-anchor:middle;font-family:sans-serif;font-style:normal;font-weight:normal" x="590" y="673.881">
        <tspan x="590" y="673.881"></tspan>
      </text>
    </g>
    <g>
      <rect style="fill: #d8e5e5; fill-opacity: 1; stroke-opacity: 1; stroke-width: 2; stroke: #000000" x="0" y="620" width="40" height="100" rx="0" ry="0"/>
      <text font-size="22.5778" style="fill: #000000; fill-opacity: 1; stroke: none;text-anchor:middle;font-family:sans-serif;font-style:normal;font-weight:normal" x="20" y="676.846">
        <tspan x="20" y="676.846">1</tspan>
      </text>
    </g>
    <g>
      <rect style="fill: #d8e5e5; fill-opacity: 1; stroke-opacity: 1; stroke-width: 2; stroke: #000000" x="80" y="640" width="80" height="60" rx="0" ry="0"/>
      <text font-size="22.5778" style="fill: #000000; fill-opacity: 1; stroke: none;text-anchor:middle;font-family:sans-serif;font-style:normal;font-weight:normal" x="120" y="676.846">
        <tspan x="120" y="676.846">2 *3</tspan>
      </text>
    </g>
    <g>
      <rect style="fill: #d8e5e5; fill-opacity: 1; stroke-opacity: 1; stroke-width: 2; stroke: #000000" x="200" y="640" width="80" height="60" rx="0" ry="0"/>
      <text font-size="22.5778" style="fill: #000000; fill-opacity: 1; stroke: none;text-anchor:middle;font-family:sans-serif;font-style:normal;font-weight:normal" x="240" y="676.846">
        <tspan x="240" y="676.846">3 *3</tspan>
      </text>
    </g>
    <g>
      <rect style="fill: #d8e5e5; fill-opacity: 1; stroke-opacity: 1; stroke-width: 2; stroke: #000000" x="320" y="620" width="60" height="100" rx="0" ry="0"/>
      <text font-size="22.5778" style="fill: #000000; fill-opacity: 1; stroke: none;text-anchor:middle;font-family:sans-serif;font-style:normal;font-weight:normal" x="350" y="676.846">
        <tspan x="350" y="676.846">4</tspan>
      </text>
    </g>
    <g>
      <line style="fill: none; stroke-opacity: 1; stroke-width: 2; stroke: #000000" x1="-35.5279" y1="740" x2="375.528" y2="740"/>
      <polyline style="fill: none; stroke-opacity: 1; stroke-width: 2; stroke: #000000" points="-29.7639,736 -37.7639,740 -29.7639,744 "/>
      <polyline style="fill: none; stroke-opacity: 1; stroke-width: 2; stroke: #000000" points="369.764,744 377.764,740 369.764,736 "/>
    </g>
    <text font-size="22.5778" style="fill: #000000; fill-opacity: 1; stroke: none;text-anchor:start;font-family:sans-serif;font-style:normal;font-weight:normal" x="80" y="780">
      <tspan x="80" y="780">7.5 mm</tspan>
    </text>
    <g>
      <line style="fill: none; stroke-opacity: 1; stroke-width: 2; stroke: #000000" x1="-35.5279" y1="600" x2="40.5279" y2="600"/>
      <polyline style="fill: none; stroke-opacity: 1; stroke-width: 2; stroke: #000000" points="-29.7639,596 -37.7639,600 -29.7639,604 "/>
      <polyline style="fill: none; stroke-opacity: 1; stroke-width: 2; stroke: #000000" points="34.7639,604 42.7639,600 34.7639,596 "/>
    </g>
    <g>
      <line style="fill: none; stroke-opacity: 1; stroke-width: 2; stroke: #000000" x1="84.4721" y1="600" x2="155.528" y2="600"/>
      <polyline style="fill: none; stroke-opacity: 1; stroke-width: 2; stroke: #000000" points="90.2361,596 82.2361,600 90.2361,604 "/>
      <polyline style="fill: none; stroke-opacity: 1; stroke-width: 2; stroke: #000000" points="149.764,604 157.764,600 149.764,596 "/>
    </g>
    <g>
      <line style="fill: none; stroke-opacity: 1; stroke-width: 2; stroke: #000000" x1="199.472" y1="600" x2="275.528" y2="600"/>
      <polyline style="fill: none; stroke-opacity: 1; stroke-width: 2; stroke: #000000" points="205.236,596 197.236,600 205.236,604 "/>
      <polyline style="fill: none; stroke-opacity: 1; stroke-width: 2; stroke: #000000" points="269.764,604 277.764,600 269.764,596 "/>
    </g>
    <g>
      <line style="fill: none; stroke-opacity: 1; stroke-width: 2; stroke: #000000" x1="324.472" y1="600" x2="375.528" y2="600"/>
      <polyline style="fill: none; stroke-opacity: 1; stroke-width: 2; stroke: #000000" points="330.236,596 322.236,600 330.236,604 "/>
      <polyline style="fill: none; stroke-opacity: 1; stroke-width: 2; stroke: #000000" points="369.764,604 377.764,600 369.764,596 "/>
    </g>
    <g>
      <line style="fill: none; stroke-opacity: 1; stroke-width: 2; stroke: #000000" x1="44.4721" y1="580" x2="75.5279" y2="580"/>
      <polyline style="fill: none; stroke-opacity: 1; stroke-width: 2; stroke: #000000" points="50.2361,576 42.2361,580 50.2361,584 "/>
      <polyline style="fill: none; stroke-opacity: 1; stroke-width: 2; stroke: #000000" points="69.7639,584 77.7639,580 69.7639,576 "/>
    </g>
    <g>
      <line style="fill: none; stroke-opacity: 1; stroke-width: 2; stroke: #000000" x1="164.472" y1="580" x2="195.528" y2="580"/>
      <polyline style="fill: none; stroke-opacity: 1; stroke-width: 2; stroke: #000000" points="170.236,576 162.236,580 170.236,584 "/>
      <polyline style="fill: none; stroke-opacity: 1; stroke-width: 2; stroke: #000000" points="189.764,584 197.764,580 189.764,576 "/>
    </g>
    <g>
      <line style="fill: none; stroke-opacity: 1; stroke-width: 2; stroke: #000000" x1="279.11" y1="580.225" x2="315.528" y2="580.025"/>
      <polyline style="fill: none; stroke-opacity: 1; stroke-width: 2; stroke: #000000" points="284.852,576.194 276.874,580.238 284.896,584.194 "/>
      <polyline style="fill: none; stroke-opacity: 1; stroke-width: 2; stroke: #000000" points="309.786,584.056 317.764,580.012 309.742,576.056 "/>
    </g>
    <text font-size="16.9333" style="fill: #000000; fill-opacity: 1; stroke: none;text-anchor:middle;font-family:sans-serif;font-style:normal;font-weight:normal" x="0" y="560">
      <tspan x="0" y="560">1.5</tspan>
      <tspan xml:space="preserve" x="0" y="581.167"> mm</tspan>
    </text>
    <text font-size="16.9333" style="fill: #000000; fill-opacity: 1; stroke: none;text-anchor:middle;font-family:sans-serif;font-style:normal;font-weight:normal" x="60" y="540">
      <tspan x="60" y="540">0.5</tspan>
      <tspan xml:space="preserve" x="60" y="561.167"> mm</tspan>
    </text>
    <text font-size="16.9333" style="fill: #000000; fill-opacity: 1; stroke: none;text-anchor:middle;font-family:sans-serif;font-style:normal;font-weight:normal" x="120" y="560">
      <tspan x="120" y="560">1.5</tspan>
      <tspan xml:space="preserve" x="120" y="581.167"> mm</tspan>
    </text>
    <text font-size="16.9333" style="fill: #000000; fill-opacity: 1; stroke: none;text-anchor:middle;font-family:sans-serif;font-style:normal;font-weight:normal" x="180" y="540">
      <tspan x="180" y="540">0.5</tspan>
      <tspan xml:space="preserve" x="180" y="561.167"> mm</tspan>
    </text>
    <text font-size="16.9333" style="fill: #000000; fill-opacity: 1; stroke: none;text-anchor:middle;font-family:sans-serif;font-style:normal;font-weight:normal" x="300" y="540">
      <tspan x="300" y="540">0.5</tspan>
      <tspan xml:space="preserve" x="300" y="561.167"> mm</tspan>
    </text>
    <text font-size="16.9333" style="fill: #000000; fill-opacity: 1; stroke: none;text-anchor:middle;font-family:sans-serif;font-style:normal;font-weight:normal" x="234.638" y="560.25">
      <tspan x="234.638" y="560.25">1.5</tspan>
      <tspan xml:space="preserve" x="234.638" y="581.417"> mm</tspan>
    </text>
    <text font-size="16.9333" style="fill: #000000; fill-opacity: 1; stroke: none;text-anchor:middle;font-family:sans-serif;font-style:normal;font-weight:normal" x="360" y="560">
      <tspan x="360" y="560">1.5</tspan>
      <tspan xml:space="preserve" x="360" y="581.167"> mm</tspan>
    </text>
    <g>
      <line style="fill: none; stroke-opacity: 1; stroke-width: 2; stroke: #000000" x1="-35.5279" y1="800" x2="1175.53" y2="800"/>
      <polyline style="fill: none; stroke-opacity: 1; stroke-width: 2; stroke: #000000" points="-29.7639,796 -37.7639,800 -29.7639,804 "/>
      <polyline style="fill: none; stroke-opacity: 1; stroke-width: 2; stroke: #000000" points="1169.76,804 1177.76,800 1169.76,796 "/>
    </g>
    <line style="fill: none; stroke-opacity: 1; stroke-width: 2; stroke-dasharray: 4; stroke: #ff0090" x1="-120" y1="640" x2="284" y2="640"/>
    <line style="fill: none; stroke-opacity: 1; stroke-width: 2; stroke-dasharray: 4; stroke: #ff0090" x1="-120" y1="700" x2="284" y2="700"/>
    <g>
      <line style="fill: none; stroke-opacity: 1; stroke-width: 2; stroke: #000000" x1="-120" y1="644.472" x2="-120" y2="695.528"/>
      <polyline style="fill: none; stroke-opacity: 1; stroke-width: 2; stroke: #000000" points="-116,650.236 -120,642.236 -124,650.236 "/>
      <polyline style="fill: none; stroke-opacity: 1; stroke-width: 2; stroke: #000000" points="-124,689.764 -120,697.764 -116,689.764 "/>
    </g>
    <text font-size="16.9333" style="fill: #000000; fill-opacity: 1; stroke: none;text-anchor:start;font-family:sans-serif;font-style:normal;font-weight:normal" x="-100" y="680">
      <tspan x="-100" y="680">90.0°</tspan>
    </text>
    <g>
      <line style="fill: none; stroke-opacity: 1; stroke-width: 2; stroke: #000000" x1="-200" y1="624.472" x2="-200" y2="715.528"/>
      <polyline style="fill: none; stroke-opacity: 1; stroke-width: 2; stroke: #000000" points="-196,630.236 -200,622.236 -204,630.236 "/>
      <polyline style="fill: none; stroke-opacity: 1; stroke-width: 2; stroke: #000000" points="-204,709.764 -200,717.764 -196,709.764 "/>
    </g>
    <text font-size="16.9333" style="fill: #000000; fill-opacity: 1; stroke: none;text-anchor:middle;font-family:sans-serif;font-style:normal;font-weight:normal" x="-240" y="680">
      <tspan x="-240" y="680">1.3</tspan>
      <tspan xml:space="preserve" x="-240" y="701.167"> mm</tspan>
    </text>
    <g>
      <line style="fill: none; stroke-opacity: 1; stroke-width: 2; stroke: #000000" x1="-280" y1="624.472" x2="-280" y2="715.528"/>
      <polyline style="fill: none; stroke-opacity: 1; stroke-width: 2; stroke: #000000" points="-276,630.236 -280,622.236 -284,630.236 "/>
      <polyline style="fill: none; stroke-opacity: 1; stroke-width: 2; stroke: #000000" points="-284,709.764 -280,717.764 -276,709.764 "/>
    </g>
    <text font-size="16.9333" style="fill: #000000; fill-opacity: 1; stroke: none;text-anchor:start;font-family:sans-serif;font-style:normal;font-weight:normal" x="-180" y="680">
      <tspan x="-180" y="680">120.0°</tspan>
    </text>
    <g>
      <rect style="fill: #d8e5e5; fill-opacity: 1; stroke-opacity: 1; stroke-width: 2.35099e-37; stroke: #d8e5e5" x="720" y="620" width="200" height="50.2222" rx="0" ry="0"/>
      <text font-size="22.5778" style="fill: #000000; fill-opacity: 1; stroke: none;text-anchor:middle;font-family:sans-serif;font-style:normal;font-weight:normal" x="820" y="651.957">
        <tspan x="820" y="651.957">3</tspan>
      </text>
    </g>
    <g>
      <rect style="fill: #d8e5e5; fill-opacity: 1; stroke-opacity: 1; stroke-width: 2.35099e-37; stroke: #d8e5e5" x="720" y="660" width="60" height="60" rx="0" ry="0"/>
      <text font-size="22.5778" style="fill: #000000; fill-opacity: 1; stroke: none;text-anchor:middle;font-family:sans-serif;font-style:normal;font-weight:normal" x="750" y="696.846">
        <tspan x="750" y="696.846">3</tspan>
      </text>
    </g>
    <g>
      <rect style="fill: #d8e5e5; fill-opacity: 1; stroke-opacity: 1; stroke-width: 2.35099e-37; stroke: #d8e5e5" x="860" y="660" width="60" height="60" rx="0" ry="0"/>
      <text font-size="22.5778" style="fill: #000000; fill-opacity: 1; stroke: none;text-anchor:middle;font-family:sans-serif;font-style:normal;font-weight:normal" x="890" y="696.846">
        <tspan x="890" y="696.846">3</tspan>
      </text>
    </g>
    <line style="fill: none; stroke-opacity: 1; stroke-width: 2; stroke: #000000" x1="720" y1="620" x2="920" y2="620"/>
    <line style="fill: none; stroke-opacity: 1; stroke-width: 2; stroke: #000000" x1="720" y1="720" x2="920" y2="720"/>
    <line style="fill: none; stroke-opacity: 1; stroke-width: 2; stroke-dasharray: 4; stroke: #ff0090" x1="720" y1="670.222" x2="1184" y2="669.998"/>
    <text font-size="16.9333" style="fill: #000000; fill-opacity: 1; stroke: none;text-anchor:start;font-family:sans-serif;font-style:normal;font-weight:normal" x="960" y="640">
      <tspan x="960" y="640">UPPER HALF</tspan>
    </text>
    <text font-size="16.9333" style="fill: #000000; fill-opacity: 1; stroke: none;text-anchor:start;font-family:sans-serif;font-style:normal;font-weight:normal" x="960" y="700">
      <tspan x="960" y="700">LOWER HALF</tspan>
    </text>
    <text font-size="22.5778" style="fill: #000000; fill-opacity: 1; stroke: none;text-anchor:start;font-family:sans-serif;font-style:normal;font-weight:normal" x="380" y="840">
      <tspan x="380" y="840">450 mm</tspan>
    </text>
    <line style="fill: none; stroke-opacity: 1; stroke-width: 2; stroke-dasharray: 4; stroke: #000000" x1="-280" y1="720" x2="4" y2="720"/>
    <line style="fill: none; stroke-opacity: 1; stroke-width: 2; stroke-dasharray: 4; stroke: #000000" x1="-280" y1="620" x2="4" y2="620"/>
    <line style="fill: none; stroke-opacity: 1; stroke-width: 2; stroke-dasharray: 4; stroke: #000000" x1="-40" y1="600" x2="-40" y2="804"/>
    <line style="fill: none; stroke-opacity: 1; stroke-width: 2; stroke-dasharray: 4; stroke: #000000" x1="40" y1="580" x2="40" y2="624"/>
    <line style="fill: none; stroke-opacity: 1; stroke-width: 2; stroke-dasharray: 4; stroke: #000000" x1="80" y1="580" x2="80" y2="624"/>
    <line style="fill: none; stroke-opacity: 1; stroke-width: 2; stroke-dasharray: 4; stroke: #000000" x1="160" y1="580" x2="160" y2="624"/>
    <line style="fill: none; stroke-opacity: 1; stroke-width: 2; stroke-dasharray: 4; stroke: #000000" x1="200" y1="580" x2="200" y2="624"/>
    <line style="fill: none; stroke-opacity: 1; stroke-width: 2; stroke-dasharray: 4; stroke: #000000" x1="280" y1="580" x2="280" y2="624"/>
    <line style="fill: none; stroke-opacity: 1; stroke-width: 2; stroke-dasharray: 4; stroke: #000000" x1="320" y1="580" x2="320" y2="624"/>
    <line style="fill: none; stroke-opacity: 1; stroke-width: 2; stroke-dasharray: 4; stroke: #000000" x1="380" y1="600" x2="380" y2="624"/>
    <line style="fill: none; stroke-opacity: 1; stroke-width: 2; stroke-dasharray: 4; stroke: #000000" x1="380" y1="720" x2="380" y2="744"/>
    <line style="fill: none; stroke-opacity: 1; stroke-width: 2; stroke-dasharray: 4; stroke: #000000" x1="1180" y1="720" x2="1180" y2="804"/>
  </g>
</svg>
