<?xml version="1.0" encoding="UTF-8" standalone="no"?>
<!DOCTYPE svg PUBLIC "-//W3C//DTD SVG 1.0//EN" "http://www.w3.org/TR/2001/PR-SVG-20010719/DTD/svg10.dtd">
<svg width="53cm" height="17cm" viewBox="-400 228 1041 337" xmlns="http://www.w3.org/2000/svg" xmlns:xlink="http://www.w3.org/1999/xlink">
  <g id="Background"/>
  <g id="Background"/>
  <g id="Background"/>
  <g id="Background"/>
  <g id="Background"/>
  <g id="Background"/>
  <g id="Boston Scientific Standard">
    <g>
      <ellipse style="fill: #eab12f; fill-opacity: 1; stroke-opacity: 1; stroke-width: 2; stroke: #000000" cx="-260" cy="440" rx="40" ry="40"/>
      <text font-size="12.8" style="fill: #000000; fill-opacity: 1; stroke: none;text-anchor:middle;font-family:sans-serif;font-style:normal;font-weight:normal" x="-260" y="443.881">
        <tspan x="-260" y="443.881"></tspan>
      </text>
    </g>
    <g>
      <rect style="fill: #eab12f; fill-opacity: 1; stroke-opacity: 1; stroke-width: 2; stroke: #000000" x="-260" y="400" width="900" height="80" rx="0" ry="0"/>
      <text font-size="12.8" style="fill: #000000; fill-opacity: 1; stroke: none;text-anchor:middle;font-family:sans-serif;font-style:normal;font-weight:normal" x="190" y="443.881">
        <tspan x="190" y="443.881"></tspan>
      </text>
    </g>
    <g>
      <rect style="fill: #d8e5e5; fill-opacity: 1; stroke-opacity: 1; stroke-width: 2; stroke: #000000" x="-240" y="400" width="60" height="80" rx="0" ry="0"/>
      <text font-size="22.5778" style="fill: #000000; fill-opacity: 1; stroke: none;text-anchor:middle;font-family:sans-serif;font-style:normal;font-weight:normal" x="-210" y="446.846">
        <tspan x="-210" y="446.846">1</tspan>
      </text>
    </g>
    <g>
      <rect style="fill: #d8e5e5; fill-opacity: 1; stroke-opacity: 1; stroke-width: 2; stroke: #000000" x="-140" y="400" width="60" height="80" rx="0" ry="0"/>
      <text font-size="22.5778" style="fill: #000000; fill-opacity: 1; stroke: none;text-anchor:middle;font-family:sans-serif;font-style:normal;font-weight:normal" x="-110" y="446.846">
        <tspan x="-110" y="446.846">2</tspan>
      </text>
    </g>
    <g>
      <rect style="fill: #d8e5e5; fill-opacity: 1; stroke-opacity: 1; stroke-width: 2; stroke: #000000" x="-40" y="400" width="60" height="80" rx="0" ry="0"/>
      <text font-size="22.5778" style="fill: #000000; fill-opacity: 1; stroke: none;text-anchor:middle;font-family:sans-serif;font-style:normal;font-weight:normal" x="-10" y="446.846">
        <tspan x="-10" y="446.846">3</tspan>
      </text>
    </g>
    <g>
      <rect style="fill: #d8e5e5; fill-opacity: 1; stroke-opacity: 1; stroke-width: 2; stroke: #000000" x="60" y="400" width="60" height="80" rx="0" ry="0"/>
      <text font-size="22.5778" style="fill: #000000; fill-opacity: 1; stroke: none;text-anchor:middle;font-family:sans-serif;font-style:normal;font-weight:normal" x="90" y="446.846">
        <tspan x="90" y="446.846">4</tspan>
      </text>
    </g>
    <g>
      <line style="fill: none; stroke-opacity: 1; stroke-width: 2; stroke: #000000" x1="-235.528" y1="380" x2="-184.472" y2="380"/>
      <polyline style="fill: none; stroke-opacity: 1; stroke-width: 2; stroke: #000000" points="-229.764,376 -237.764,380 -229.764,384 "/>
      <polyline style="fill: none; stroke-opacity: 1; stroke-width: 2; stroke: #000000" points="-190.236,384 -182.236,380 -190.236,376 "/>
    </g>
    <g>
      <line style="fill: none; stroke-opacity: 1; stroke-width: 2; stroke: #000000" x1="-135.528" y1="380" x2="-84.4721" y2="380"/>
      <polyline style="fill: none; stroke-opacity: 1; stroke-width: 2; stroke: #000000" points="-129.764,376 -137.764,380 -129.764,384 "/>
      <polyline style="fill: none; stroke-opacity: 1; stroke-width: 2; stroke: #000000" points="-90.2361,384 -82.2361,380 -90.2361,376 "/>
    </g>
    <g>
      <line style="fill: none; stroke-opacity: 1; stroke-width: 2; stroke: #000000" x1="-35.5279" y1="380" x2="15.5279" y2="380"/>
      <polyline style="fill: none; stroke-opacity: 1; stroke-width: 2; stroke: #000000" points="-29.7639,376 -37.7639,380 -29.7639,384 "/>
      <polyline style="fill: none; stroke-opacity: 1; stroke-width: 2; stroke: #000000" points="9.76393,384 17.7639,380 9.76393,376 "/>
    </g>
    <g>
      <line style="fill: none; stroke-opacity: 1; stroke-width: 2; stroke: #000000" x1="64.4721" y1="380" x2="115.528" y2="380"/>
      <polyline style="fill: none; stroke-opacity: 1; stroke-width: 2; stroke: #000000" points="70.2361,376 62.2361,380 70.2361,384 "/>
      <polyline style="fill: none; stroke-opacity: 1; stroke-width: 2; stroke: #000000" points="109.764,384 117.764,380 109.764,376 "/>
    </g>
    <g>
      <line style="fill: none; stroke-opacity: 1; stroke-width: 2; stroke: #000000" x1="-175.528" y1="360" x2="-144.472" y2="360"/>
      <polyline style="fill: none; stroke-opacity: 1; stroke-width: 2; stroke: #000000" points="-169.764,356 -177.764,360 -169.764,364 "/>
      <polyline style="fill: none; stroke-opacity: 1; stroke-width: 2; stroke: #000000" points="-150.236,364 -142.236,360 -150.236,356 "/>
    </g>
    <g>
      <line style="fill: none; stroke-opacity: 1; stroke-width: 2; stroke: #000000" x1="-75.5279" y1="360" x2="-44.4721" y2="360"/>
      <polyline style="fill: none; stroke-opacity: 1; stroke-width: 2; stroke: #000000" points="-69.7639,356 -77.7639,360 -69.7639,364 "/>
      <polyline style="fill: none; stroke-opacity: 1; stroke-width: 2; stroke: #000000" points="-50.2361,364 -42.2361,360 -50.2361,356 "/>
    </g>
    <g>
      <line style="fill: none; stroke-opacity: 1; stroke-width: 2; stroke: #000000" x1="24.4721" y1="360" x2="55.5279" y2="360"/>
      <polyline style="fill: none; stroke-opacity: 1; stroke-width: 2; stroke: #000000" points="30.2361,356 22.2361,360 30.2361,364 "/>
      <polyline style="fill: none; stroke-opacity: 1; stroke-width: 2; stroke: #000000" points="49.7639,364 57.7639,360 49.7639,356 "/>
    </g>
    <text font-size="16.9333" style="fill: #000000; fill-opacity: 1; stroke: none;text-anchor:middle;font-family:sans-serif;font-style:normal;font-weight:normal" x="-220" y="340">
      <tspan x="-220" y="340">1.5</tspan>
      <tspan xml:space="preserve" x="-220" y="361.167"> mm</tspan>
    </text>
    <text font-size="16.9333" style="fill: #000000; fill-opacity: 1; stroke: none;text-anchor:middle;font-family:sans-serif;font-style:normal;font-weight:normal" x="-160" y="320">
      <tspan x="-160" y="320">0.5</tspan>
      <tspan xml:space="preserve" x="-160" y="341.167"> mm</tspan>
    </text>
    <text font-size="16.9333" style="fill: #000000; fill-opacity: 1; stroke: none;text-anchor:middle;font-family:sans-serif;font-style:normal;font-weight:normal" x="-120" y="340">
      <tspan x="-120" y="340">1.5</tspan>
      <tspan xml:space="preserve" x="-120" y="361.167"> mm</tspan>
    </text>
    <text font-size="16.9333" style="fill: #000000; fill-opacity: 1; stroke: none;text-anchor:middle;font-family:sans-serif;font-style:normal;font-weight:normal" x="-60" y="320">
      <tspan x="-60" y="320">0.5</tspan>
      <tspan xml:space="preserve" x="-60" y="341.167"> mm</tspan>
    </text>
    <text font-size="16.9333" style="fill: #000000; fill-opacity: 1; stroke: none;text-anchor:middle;font-family:sans-serif;font-style:normal;font-weight:normal" x="40" y="320">
      <tspan x="40" y="320">0.5</tspan>
      <tspan xml:space="preserve" x="40" y="341.167"> mm</tspan>
    </text>
    <text font-size="16.9333" style="fill: #000000; fill-opacity: 1; stroke: none;text-anchor:middle;font-family:sans-serif;font-style:normal;font-weight:normal" x="-20" y="340">
      <tspan x="-20" y="340">1.5</tspan>
      <tspan xml:space="preserve" x="-20" y="361.167"> mm</tspan>
    </text>
    <text font-size="16.9333" style="fill: #000000; fill-opacity: 1; stroke: none;text-anchor:middle;font-family:sans-serif;font-style:normal;font-weight:normal" x="80" y="340">
      <tspan x="80" y="340">1.5</tspan>
      <tspan xml:space="preserve" x="80" y="361.167"> mm</tspan>
    </text>
    <text font-size="16.9333" style="fill: #000000; fill-opacity: 1; stroke: none;text-anchor:start;font-family:sans-serif;font-style:normal;font-weight:normal" x="-400" y="440">
      <tspan x="-400" y="440">1.3 mm </tspan>
    </text>
    <g>
      <line style="fill: none; stroke-opacity: 1; stroke-width: 2; stroke: #000000" x1="-295.528" y1="500" x2="635.528" y2="500"/>
      <polyline style="fill: none; stroke-opacity: 1; stroke-width: 2; stroke: #000000" points="-289.764,496 -297.764,500 -289.764,504 "/>
      <polyline style="fill: none; stroke-opacity: 1; stroke-width: 2; stroke: #000000" points="629.764,504 637.764,500 629.764,496 "/>
    </g>
    <text font-size="22.5778" style="fill: #000000; fill-opacity: 1; stroke: none;text-anchor:start;font-family:sans-serif;font-style:normal;font-weight:normal" x="140" y="540">
      <tspan x="140" y="540">45 mm</tspan>
    </text>
    <g>
      <line style="fill: none; stroke-opacity: 1; stroke-width: 2; stroke: #000000" x1="-295.528" y1="520" x2="-244.472" y2="520"/>
      <polyline style="fill: none; stroke-opacity: 1; stroke-width: 2; stroke: #000000" points="-289.764,516 -297.764,520 -289.764,524 "/>
      <polyline style="fill: none; stroke-opacity: 1; stroke-width: 2; stroke: #000000" points="-250.236,524 -242.236,520 -250.236,516 "/>
    </g>
    <text font-size="16.9333" style="fill: #000000; fill-opacity: 1; stroke: none;text-anchor:middle;font-family:sans-serif;font-style:normal;font-weight:normal" x="-280" y="540">
      <tspan x="-280" y="540">&lt; 1.3</tspan>
      <tspan xml:space="preserve" x="-280" y="561.167"> mm</tspan>
    </text>
    <text font-size="12.8" style="fill: #000000; fill-opacity: 1; stroke: none;text-anchor:start;font-family:sans-serif;font-style:normal;font-weight:normal" x="276.3" y="189.602">
      <tspan x="276.3" y="189.602"></tspan>
    </text>
    <text font-size="22.5778" style="fill: #000000; fill-opacity: 1; stroke: none;text-anchor:start;font-family:sans-serif;font-style:normal;font-weight:normal" x="196.3" y="249.602">
      <tspan x="196.3" y="249.602">BOSTON SCIENTIFIC STANDARD</tspan>
    </text>
    <g>
      <rect style="fill: #d8e5e5; fill-opacity: 1; stroke-opacity: 1; stroke-width: 2; stroke: #000000" x="160" y="400" width="60" height="80" rx="0" ry="0"/>
      <text font-size="22.5778" style="fill: #000000; fill-opacity: 1; stroke: none;text-anchor:middle;font-family:sans-serif;font-style:normal;font-weight:normal" x="190" y="446.846">
        <tspan x="190" y="446.846">5</tspan>
      </text>
    </g>
    <g>
      <line style="fill: none; stroke-opacity: 1; stroke-width: 2; stroke: #000000" x1="164.472" y1="380" x2="215.528" y2="380"/>
      <polyline style="fill: none; stroke-opacity: 1; stroke-width: 2; stroke: #000000" points="170.236,376 162.236,380 170.236,384 "/>
      <polyline style="fill: none; stroke-opacity: 1; stroke-width: 2; stroke: #000000" points="209.764,384 217.764,380 209.764,376 "/>
    </g>
    <g>
      <line style="fill: none; stroke-opacity: 1; stroke-width: 2; stroke: #000000" x1="124.472" y1="360" x2="155.528" y2="360"/>
      <polyline style="fill: none; stroke-opacity: 1; stroke-width: 2; stroke: #000000" points="130.236,356 122.236,360 130.236,364 "/>
      <polyline style="fill: none; stroke-opacity: 1; stroke-width: 2; stroke: #000000" points="149.764,364 157.764,360 149.764,356 "/>
    </g>
    <text font-size="16.9333" style="fill: #000000; fill-opacity: 1; stroke: none;text-anchor:middle;font-family:sans-serif;font-style:normal;font-weight:normal" x="140" y="320">
      <tspan x="140" y="320">0.5</tspan>
      <tspan xml:space="preserve" x="140" y="341.167"> mm</tspan>
    </text>
    <text font-size="16.9333" style="fill: #000000; fill-opacity: 1; stroke: none;text-anchor:middle;font-family:sans-serif;font-style:normal;font-weight:normal" x="180" y="340">
      <tspan x="180" y="340">1.5</tspan>
      <tspan xml:space="preserve" x="180" y="361.167"> mm</tspan>
    </text>
    <g>
      <rect style="fill: #d8e5e5; fill-opacity: 1; stroke-opacity: 1; stroke-width: 2; stroke: #000000" x="260" y="400" width="60" height="80" rx="0" ry="0"/>
      <text font-size="22.5778" style="fill: #000000; fill-opacity: 1; stroke: none;text-anchor:middle;font-family:sans-serif;font-style:normal;font-weight:normal" x="290" y="446.846">
        <tspan x="290" y="446.846">6</tspan>
      </text>
    </g>
    <g>
      <line style="fill: none; stroke-opacity: 1; stroke-width: 2; stroke: #000000" x1="264.472" y1="380" x2="315.528" y2="380"/>
      <polyline style="fill: none; stroke-opacity: 1; stroke-width: 2; stroke: #000000" points="270.236,376 262.236,380 270.236,384 "/>
      <polyline style="fill: none; stroke-opacity: 1; stroke-width: 2; stroke: #000000" points="309.764,384 317.764,380 309.764,376 "/>
    </g>
    <g>
      <line style="fill: none; stroke-opacity: 1; stroke-width: 2; stroke: #000000" x1="224.472" y1="360" x2="255.528" y2="360"/>
      <polyline style="fill: none; stroke-opacity: 1; stroke-width: 2; stroke: #000000" points="230.236,356 222.236,360 230.236,364 "/>
      <polyline style="fill: none; stroke-opacity: 1; stroke-width: 2; stroke: #000000" points="249.764,364 257.764,360 249.764,356 "/>
    </g>
    <text font-size="16.9333" style="fill: #000000; fill-opacity: 1; stroke: none;text-anchor:middle;font-family:sans-serif;font-style:normal;font-weight:normal" x="240" y="320">
      <tspan x="240" y="320">0.5</tspan>
      <tspan xml:space="preserve" x="240" y="341.167"> mm</tspan>
    </text>
    <text font-size="16.9333" style="fill: #000000; fill-opacity: 1; stroke: none;text-anchor:middle;font-family:sans-serif;font-style:normal;font-weight:normal" x="280" y="340">
      <tspan x="280" y="340">1.5</tspan>
      <tspan xml:space="preserve" x="280" y="361.167"> mm</tspan>
    </text>
    <g>
      <rect style="fill: #d8e5e5; fill-opacity: 1; stroke-opacity: 1; stroke-width: 2; stroke: #000000" x="360" y="400" width="60" height="80" rx="0" ry="0"/>
      <text font-size="22.5778" style="fill: #000000; fill-opacity: 1; stroke: none;text-anchor:middle;font-family:sans-serif;font-style:normal;font-weight:normal" x="390" y="446.846">
        <tspan x="390" y="446.846">7</tspan>
      </text>
    </g>
    <g>
      <line style="fill: none; stroke-opacity: 1; stroke-width: 2; stroke: #000000" x1="364.472" y1="380" x2="415.528" y2="380"/>
      <polyline style="fill: none; stroke-opacity: 1; stroke-width: 2; stroke: #000000" points="370.236,376 362.236,380 370.236,384 "/>
      <polyline style="fill: none; stroke-opacity: 1; stroke-width: 2; stroke: #000000" points="409.764,384 417.764,380 409.764,376 "/>
    </g>
    <g>
      <line style="fill: none; stroke-opacity: 1; stroke-width: 2; stroke: #000000" x1="324.472" y1="360" x2="355.528" y2="360"/>
      <polyline style="fill: none; stroke-opacity: 1; stroke-width: 2; stroke: #000000" points="330.236,356 322.236,360 330.236,364 "/>
      <polyline style="fill: none; stroke-opacity: 1; stroke-width: 2; stroke: #000000" points="349.764,364 357.764,360 349.764,356 "/>
    </g>
    <text font-size="16.9333" style="fill: #000000; fill-opacity: 1; stroke: none;text-anchor:middle;font-family:sans-serif;font-style:normal;font-weight:normal" x="340" y="320">
      <tspan x="340" y="320">0.5</tspan>
      <tspan xml:space="preserve" x="340" y="341.167"> mm</tspan>
    </text>
    <text font-size="16.9333" style="fill: #000000; fill-opacity: 1; stroke: none;text-anchor:middle;font-family:sans-serif;font-style:normal;font-weight:normal" x="380" y="340">
      <tspan x="380" y="340">1.5</tspan>
      <tspan xml:space="preserve" x="380" y="361.167"> mm</tspan>
    </text>
    <g>
      <rect style="fill: #d8e5e5; fill-opacity: 1; stroke-opacity: 1; stroke-width: 2; stroke: #000000" x="460" y="400" width="60" height="80" rx="0" ry="0"/>
      <text font-size="22.5778" style="fill: #000000; fill-opacity: 1; stroke: none;text-anchor:middle;font-family:sans-serif;font-style:normal;font-weight:normal" x="490" y="446.846">
        <tspan x="490" y="446.846">8</tspan>
      </text>
    </g>
    <g>
      <line style="fill: none; stroke-opacity: 1; stroke-width: 2; stroke: #000000" x1="464.472" y1="380" x2="515.528" y2="380"/>
      <polyline style="fill: none; stroke-opacity: 1; stroke-width: 2; stroke: #000000" points="470.236,376 462.236,380 470.236,384 "/>
      <polyline style="fill: none; stroke-opacity: 1; stroke-width: 2; stroke: #000000" points="509.764,384 517.764,380 509.764,376 "/>
    </g>
    <g>
      <line style="fill: none; stroke-opacity: 1; stroke-width: 2; stroke: #000000" x1="424.472" y1="360" x2="455.528" y2="360"/>
      <polyline style="fill: none; stroke-opacity: 1; stroke-width: 2; stroke: #000000" points="430.236,356 422.236,360 430.236,364 "/>
      <polyline style="fill: none; stroke-opacity: 1; stroke-width: 2; stroke: #000000" points="449.764,364 457.764,360 449.764,356 "/>
    </g>
    <text font-size="16.9333" style="fill: #000000; fill-opacity: 1; stroke: none;text-anchor:middle;font-family:sans-serif;font-style:normal;font-weight:normal" x="440" y="320">
      <tspan x="440" y="320">0.5</tspan>
      <tspan xml:space="preserve" x="440" y="341.167"> mm</tspan>
    </text>
    <text font-size="16.9333" style="fill: #000000; fill-opacity: 1; stroke: none;text-anchor:middle;font-family:sans-serif;font-style:normal;font-weight:normal" x="480" y="340">
      <tspan x="480" y="340">1.5</tspan>
      <tspan xml:space="preserve" x="480" y="361.167"> mm</tspan>
    </text>
    <g>
      <line style="fill: none; stroke-opacity: 1; stroke-width: 2; stroke: #000000" x1="-320" y1="404.472" x2="-320" y2="475.528"/>
      <polyline style="fill: none; stroke-opacity: 1; stroke-width: 2; stroke: #000000" points="-316,410.236 -320,402.236 -324,410.236 "/>
      <polyline style="fill: none; stroke-opacity: 1; stroke-width: 2; stroke: #000000" points="-324,469.764 -320,477.764 -316,469.764 "/>
    </g>
    <line style="fill: none; stroke-opacity: 1; stroke-width: 2; stroke-dasharray: 4; stroke: #000000" x1="-180" y1="360" x2="-180" y2="400"/>
    <line style="fill: none; stroke-opacity: 1; stroke-width: 2; stroke-dasharray: 4; stroke: #000000" x1="-140" y1="360" x2="-140" y2="400"/>
    <line style="fill: none; stroke-opacity: 1; stroke-width: 2; stroke-dasharray: 4; stroke: #000000" x1="-80" y1="360" x2="-80" y2="400"/>
    <line style="fill: none; stroke-opacity: 1; stroke-width: 2; stroke-dasharray: 4; stroke: #000000" x1="-40" y1="360" x2="-40" y2="400"/>
    <line style="fill: none; stroke-opacity: 1; stroke-width: 2; stroke-dasharray: 4; stroke: #000000" x1="20" y1="360" x2="20" y2="400"/>
    <line style="fill: none; stroke-opacity: 1; stroke-width: 2; stroke-dasharray: 4; stroke: #000000" x1="60" y1="360" x2="60" y2="400"/>
    <line style="fill: none; stroke-opacity: 1; stroke-width: 2; stroke-dasharray: 4; stroke: #000000" x1="120" y1="360" x2="120" y2="400"/>
    <line style="fill: none; stroke-opacity: 1; stroke-width: 2; stroke-dasharray: 4; stroke: #000000" x1="160" y1="360" x2="160" y2="400"/>
    <line style="fill: none; stroke-opacity: 1; stroke-width: 2; stroke-dasharray: 4; stroke: #000000" x1="220" y1="360" x2="220" y2="400"/>
    <line style="fill: none; stroke-opacity: 1; stroke-width: 2; stroke-dasharray: 4; stroke: #000000" x1="260" y1="360" x2="260" y2="400"/>
    <line style="fill: none; stroke-opacity: 1; stroke-width: 2; stroke-dasharray: 4; stroke: #000000" x1="320" y1="400" x2="320" y2="360"/>
    <line style="fill: none; stroke-opacity: 1; stroke-width: 2; stroke-dasharray: 4; stroke: #000000" x1="360" y1="400" x2="360" y2="360"/>
    <line style="fill: none; stroke-opacity: 1; stroke-width: 2; stroke-dasharray: 4; stroke: #000000" x1="420" y1="400" x2="420" y2="360"/>
    <line style="fill: none; stroke-opacity: 1; stroke-width: 2; stroke-dasharray: 4; stroke: #000000" x1="460" y1="400" x2="460" y2="360"/>
    <line style="fill: none; stroke-opacity: 1; stroke-width: 2; stroke-dasharray: 4; stroke: #000000" x1="520" y1="380" x2="520" y2="400"/>
    <line style="fill: none; stroke-opacity: 1; stroke-width: 2; stroke-dasharray: 4; stroke: #000000" x1="-240" y1="380" x2="-240" y2="400"/>
    <line style="fill: none; stroke-opacity: 1; stroke-width: 2; stroke-dasharray: 4; stroke: #000000" x1="640" y1="480" x2="640" y2="500"/>
    <line style="fill: none; stroke-opacity: 1; stroke-width: 2; stroke-dasharray: 4; stroke: #000000" x1="-240" y1="480" x2="-240" y2="520"/>
    <line style="fill: none; stroke-opacity: 1; stroke-width: 2; stroke-dasharray: 4; stroke: #000000" x1="-300" y1="440" x2="-300" y2="520"/>
    <line style="fill: none; stroke-opacity: 1; stroke-width: 2; stroke-dasharray: 4; stroke: #000000" x1="-320" y1="400" x2="-260" y2="400"/>
    <line style="fill: none; stroke-opacity: 1; stroke-width: 2; stroke-dasharray: 4; stroke: #000000" x1="-320" y1="480" x2="-260" y2="480"/>
  </g>
</svg>
