<?xml version="1.0" encoding="UTF-8" standalone="no"?>
<!DOCTYPE svg PUBLIC "-//W3C//DTD SVG 1.0//EN" "http://www.w3.org/TR/2001/PR-SVG-20010719/DTD/svg10.dtd">
<svg width="81cm" height="42cm" viewBox="-200 448 1602 821" xmlns="http://www.w3.org/2000/svg" xmlns:xlink="http://www.w3.org/1999/xlink">
  <g id="Background"/>
  <g id="Background"/>
  <g id="Background"/>
  <g id="Background"/>
  <g id="Background"/>
  <g id="Background"/>
  <g id="Medtronic 3387-3389">
    <g>
      <ellipse style="fill: #eab12f; fill-opacity: 1; stroke-opacity: 1; stroke-width: 2; stroke: #000000" cx="-40" cy="660" rx="40" ry="40"/>
      <text font-size="12.8" style="fill: #000000; fill-opacity: 1; stroke: none;text-anchor:middle;font-family:sans-serif;font-style:normal;font-weight:normal" x="-40" y="663.881">
        <tspan x="-40" y="663.881"></tspan>
      </text>
    </g>
    <g>
      <rect style="fill: #eab12f; fill-opacity: 1; stroke-opacity: 1; stroke-width: 2; stroke: #000000" x="-40" y="620" width="1440" height="80" rx="0" ry="0"/>
      <text font-size="12.8" style="fill: #000000; fill-opacity: 1; stroke: none;text-anchor:middle;font-family:sans-serif;font-style:normal;font-weight:normal" x="680" y="663.881">
        <tspan x="680" y="663.881"></tspan>
      </text>
    </g>
    <g>
      <rect style="fill: #d8e5e5; fill-opacity: 1; stroke-opacity: 1; stroke-width: 2; stroke: #000000" x="-20" y="620" width="60" height="80" rx="0" ry="0"/>
      <text font-size="22.5778" style="fill: #000000; fill-opacity: 1; stroke: none;text-anchor:middle;font-family:sans-serif;font-style:normal;font-weight:normal" x="10" y="666.846">
        <tspan x="10" y="666.846">1</tspan>
      </text>
    </g>
    <g>
      <rect style="fill: #d8e5e5; fill-opacity: 1; stroke-opacity: 1; stroke-width: 2; stroke: #000000" x="80" y="620" width="60" height="80" rx="0" ry="0"/>
      <text font-size="22.5778" style="fill: #000000; fill-opacity: 1; stroke: none;text-anchor:middle;font-family:sans-serif;font-style:normal;font-weight:normal" x="110" y="666.846">
        <tspan x="110" y="666.846">2</tspan>
      </text>
    </g>
    <g>
      <rect style="fill: #d8e5e5; fill-opacity: 1; stroke-opacity: 1; stroke-width: 2; stroke: #000000" x="180" y="620" width="60" height="80" rx="0" ry="0"/>
      <text font-size="22.5778" style="fill: #000000; fill-opacity: 1; stroke: none;text-anchor:middle;font-family:sans-serif;font-style:normal;font-weight:normal" x="210" y="666.846">
        <tspan x="210" y="666.846">3</tspan>
      </text>
    </g>
    <g>
      <rect style="fill: #d8e5e5; fill-opacity: 1; stroke-opacity: 1; stroke-width: 2; stroke: #000000" x="280" y="620" width="60" height="80" rx="0" ry="0"/>
      <text font-size="22.5778" style="fill: #000000; fill-opacity: 1; stroke: none;text-anchor:middle;font-family:sans-serif;font-style:normal;font-weight:normal" x="310" y="666.846">
        <tspan x="310" y="666.846">4</tspan>
      </text>
    </g>
    <g>
      <line style="fill: none; stroke-opacity: 1; stroke-width: 2; stroke: #000000" x1="-11" y1="740" x2="331" y2="740"/>
      <polygon style="fill: #000000; fill-opacity: 1; stroke-opacity: 1; stroke-width: 2; stroke: #000000" fill-rule="evenodd" points="-11,736 -19,740 -11,744 "/>
      <polygon style="fill: #000000; fill-opacity: 1; stroke-opacity: 1; stroke-width: 2; stroke: #000000" fill-rule="evenodd" points="331,744 339,740 331,736 "/>
    </g>
    <text font-size="22.5778" style="fill: #000000; fill-opacity: 1; stroke: none;text-anchor:start;font-family:sans-serif;font-style:normal;font-weight:normal" x="120" y="780">
      <tspan x="120" y="780">10.5 mm</tspan>
    </text>
    <g>
      <line style="fill: none; stroke-opacity: 1; stroke-width: 2; stroke: #000000" x1="-11" y1="600" x2="31" y2="600"/>
      <polygon style="fill: #000000; fill-opacity: 1; stroke-opacity: 1; stroke-width: 2; stroke: #000000" fill-rule="evenodd" points="-11,596 -19,600 -11,604 "/>
      <polygon style="fill: #000000; fill-opacity: 1; stroke-opacity: 1; stroke-width: 2; stroke: #000000" fill-rule="evenodd" points="31,604 39,600 31,596 "/>
    </g>
    <g>
      <line style="fill: none; stroke-opacity: 1; stroke-width: 2; stroke: #000000" x1="89" y1="600" x2="131" y2="600"/>
      <polygon style="fill: #000000; fill-opacity: 1; stroke-opacity: 1; stroke-width: 2; stroke: #000000" fill-rule="evenodd" points="89,596 81,600 89,604 "/>
      <polygon style="fill: #000000; fill-opacity: 1; stroke-opacity: 1; stroke-width: 2; stroke: #000000" fill-rule="evenodd" points="131,604 139,600 131,596 "/>
    </g>
    <g>
      <line style="fill: none; stroke-opacity: 1; stroke-width: 2; stroke: #000000" x1="189" y1="600" x2="231" y2="600"/>
      <polygon style="fill: #000000; fill-opacity: 1; stroke-opacity: 1; stroke-width: 2; stroke: #000000" fill-rule="evenodd" points="189,596 181,600 189,604 "/>
      <polygon style="fill: #000000; fill-opacity: 1; stroke-opacity: 1; stroke-width: 2; stroke: #000000" fill-rule="evenodd" points="231,604 239,600 231,596 "/>
    </g>
    <g>
      <line style="fill: none; stroke-opacity: 1; stroke-width: 2; stroke: #000000" x1="289" y1="600" x2="331" y2="600"/>
      <polygon style="fill: #000000; fill-opacity: 1; stroke-opacity: 1; stroke-width: 2; stroke: #000000" fill-rule="evenodd" points="289,596 281,600 289,604 "/>
      <polygon style="fill: #000000; fill-opacity: 1; stroke-opacity: 1; stroke-width: 2; stroke: #000000" fill-rule="evenodd" points="331,604 339,600 331,596 "/>
    </g>
    <g>
      <line style="fill: none; stroke-opacity: 1; stroke-width: 2; stroke: #000000" x1="49" y1="580" x2="71" y2="580"/>
      <polygon style="fill: #000000; fill-opacity: 1; stroke-opacity: 1; stroke-width: 2; stroke: #000000" fill-rule="evenodd" points="49,576 41,580 49,584 "/>
      <polygon style="fill: #000000; fill-opacity: 1; stroke-opacity: 1; stroke-width: 2; stroke: #000000" fill-rule="evenodd" points="71,584 79,580 71,576 "/>
    </g>
    <g>
      <line style="fill: none; stroke-opacity: 1; stroke-width: 2; stroke: #000000" x1="149" y1="580" x2="171" y2="580"/>
      <polygon style="fill: #000000; fill-opacity: 1; stroke-opacity: 1; stroke-width: 2; stroke: #000000" fill-rule="evenodd" points="149,576 141,580 149,584 "/>
      <polygon style="fill: #000000; fill-opacity: 1; stroke-opacity: 1; stroke-width: 2; stroke: #000000" fill-rule="evenodd" points="171,584 179,580 171,576 "/>
    </g>
    <g>
      <line style="fill: none; stroke-opacity: 1; stroke-width: 2; stroke: #000000" x1="249" y1="580" x2="271" y2="580"/>
      <polygon style="fill: #000000; fill-opacity: 1; stroke-opacity: 1; stroke-width: 2; stroke: #000000" fill-rule="evenodd" points="249,576 241,580 249,584 "/>
      <polygon style="fill: #000000; fill-opacity: 1; stroke-opacity: 1; stroke-width: 2; stroke: #000000" fill-rule="evenodd" points="271,584 279,580 271,576 "/>
    </g>
    <text font-size="16.9333" style="fill: #000000; fill-opacity: 1; stroke: none;text-anchor:middle;font-family:sans-serif;font-style:normal;font-weight:normal" x="-4e-05" y="560">
      <tspan x="-4e-05" y="560">1,5</tspan>
      <tspan xml:space="preserve" x="-4e-05" y="581.167"> mm</tspan>
    </text>
    <text font-size="16.9333" style="fill: #000000; fill-opacity: 1; stroke: none;text-anchor:middle;font-family:sans-serif;font-style:normal;font-weight:normal" x="60" y="540">
      <tspan x="60" y="540">1,5</tspan>
      <tspan xml:space="preserve" x="60" y="561.167"> mm</tspan>
    </text>
    <text font-size="16.9333" style="fill: #000000; fill-opacity: 1; stroke: none;text-anchor:middle;font-family:sans-serif;font-style:normal;font-weight:normal" x="100" y="560">
      <tspan x="100" y="560">1,5</tspan>
      <tspan xml:space="preserve" x="100" y="581.167"> mm</tspan>
    </text>
    <text font-size="16.9333" style="fill: #000000; fill-opacity: 1; stroke: none;text-anchor:middle;font-family:sans-serif;font-style:normal;font-weight:normal" x="160" y="540">
      <tspan x="160" y="540">1,5</tspan>
      <tspan xml:space="preserve" x="160" y="561.167"> mm</tspan>
    </text>
    <text font-size="16.9333" style="fill: #000000; fill-opacity: 1; stroke: none;text-anchor:middle;font-family:sans-serif;font-style:normal;font-weight:normal" x="260" y="540">
      <tspan x="260" y="540">1,5</tspan>
      <tspan xml:space="preserve" x="260" y="561.167"> mm</tspan>
    </text>
    <text font-size="16.9333" style="fill: #000000; fill-opacity: 1; stroke: none;text-anchor:middle;font-family:sans-serif;font-style:normal;font-weight:normal" x="200" y="560">
      <tspan x="200" y="560">1,5</tspan>
      <tspan xml:space="preserve" x="200" y="581.167"> mm</tspan>
    </text>
    <text font-size="16.9333" style="fill: #000000; fill-opacity: 1; stroke: none;text-anchor:middle;font-family:sans-serif;font-style:normal;font-weight:normal" x="300" y="560">
      <tspan x="300" y="560">1,5</tspan>
      <tspan xml:space="preserve" x="300" y="581.167"> mm</tspan>
    </text>
    <g>
      <line style="fill: none; stroke-opacity: 1; stroke-width: 2; stroke: #000000" x1="-100" y1="629" x2="-100" y2="691"/>
      <polygon style="fill: #000000; fill-opacity: 1; stroke-opacity: 1; stroke-width: 2; stroke: #000000" fill-rule="evenodd" points="-96,629 -100,621 -104,629 "/>
      <polygon style="fill: #000000; fill-opacity: 1; stroke-opacity: 1; stroke-width: 2; stroke: #000000" fill-rule="evenodd" points="-104,691 -100,699 -96,691 "/>
    </g>
    <text font-size="16.9333" style="fill: #000000; fill-opacity: 1; stroke: none;text-anchor:start;font-family:sans-serif;font-style:normal;font-weight:normal" x="-200" y="680">
      <tspan x="-200" y="680">1.27 mm </tspan>
    </text>
    <g>
      <line style="fill: none; stroke-opacity: 1; stroke-width: 2; stroke: #000000" x1="749" y1="740" x2="1391" y2="740"/>
      <polygon style="fill: #000000; fill-opacity: 1; stroke-opacity: 1; stroke-width: 2; stroke: #000000" fill-rule="evenodd" points="749,736 741,740 749,744 "/>
      <polygon style="fill: #000000; fill-opacity: 1; stroke-opacity: 1; stroke-width: 2; stroke: #000000" fill-rule="evenodd" points="1391,744 1399,740 1391,736 "/>
    </g>
    <g>
      <rect style="fill: #d8e5e5; fill-opacity: 1; stroke-opacity: 1; stroke-width: 2; stroke: #000000" x="900" y="620" width="60" height="80" rx="0" ry="0"/>
      <text font-size="22.5778" style="fill: #000000; fill-opacity: 1; stroke: none;text-anchor:middle;font-family:sans-serif;font-style:normal;font-weight:normal" x="930" y="666.846">
        <tspan x="930" y="666.846">1</tspan>
      </text>
    </g>
    <g>
      <rect style="fill: #d8e5e5; fill-opacity: 1; stroke-opacity: 1; stroke-width: 2; stroke: #000000" x="1020" y="620" width="60" height="80" rx="0" ry="0"/>
      <text font-size="22.5778" style="fill: #000000; fill-opacity: 1; stroke: none;text-anchor:middle;font-family:sans-serif;font-style:normal;font-weight:normal" x="1050" y="666.846">
        <tspan x="1050" y="666.846">2</tspan>
      </text>
    </g>
    <g>
      <rect style="fill: #d8e5e5; fill-opacity: 1; stroke-opacity: 1; stroke-width: 2; stroke: #000000" x="1140" y="620" width="60" height="80" rx="0" ry="0"/>
      <text font-size="22.5778" style="fill: #000000; fill-opacity: 1; stroke: none;text-anchor:middle;font-family:sans-serif;font-style:normal;font-weight:normal" x="1170" y="666.846">
        <tspan x="1170" y="666.846">3</tspan>
      </text>
    </g>
    <g>
      <rect style="fill: #d8e5e5; fill-opacity: 1; stroke-opacity: 1; stroke-width: 2; stroke: #000000" x="1260" y="620" width="60" height="80" rx="0" ry="0"/>
      <text font-size="22.5778" style="fill: #000000; fill-opacity: 1; stroke: none;text-anchor:middle;font-family:sans-serif;font-style:normal;font-weight:normal" x="1290" y="666.846">
        <tspan x="1290" y="666.846">4</tspan>
      </text>
    </g>
    <text font-size="22.5778" style="fill: #000000; fill-opacity: 1; stroke: none;text-anchor:start;font-family:sans-serif;font-style:normal;font-weight:normal" x="1140" y="780">
      <tspan x="1140" y="780">401 mm</tspan>
    </text>
    <g>
      <line style="fill: none; stroke-opacity: 1; stroke-width: 2; stroke: #000000" x1="909" y1="520" x2="1371" y2="520"/>
      <polygon style="fill: #000000; fill-opacity: 1; stroke-opacity: 1; stroke-width: 2; stroke: #000000" fill-rule="evenodd" points="909,516 901,520 909,524 "/>
      <polygon style="fill: #000000; fill-opacity: 1; stroke-opacity: 1; stroke-width: 2; stroke: #000000" fill-rule="evenodd" points="1371,524 1379,520 1371,516 "/>
    </g>
    <line style="fill: none; stroke-opacity: 1; stroke-width: 2; stroke: #000000" x1="1380" y1="620" x2="1380" y2="700"/>
    <text font-size="22.5778" style="fill: #000000; fill-opacity: 1; stroke: none;text-anchor:start;font-family:sans-serif;font-style:normal;font-weight:normal" x="1060" y="500">
      <tspan x="1060" y="500">16.6 mm</tspan>
    </text>
    <g>
      <line style="fill: none; stroke-opacity: 1; stroke-width: 2; stroke: #000000" x1="909" y1="600" x2="951" y2="600"/>
      <polygon style="fill: #000000; fill-opacity: 1; stroke-opacity: 1; stroke-width: 2; stroke: #000000" fill-rule="evenodd" points="909,596 901,600 909,604 "/>
      <polygon style="fill: #000000; fill-opacity: 1; stroke-opacity: 1; stroke-width: 2; stroke: #000000" fill-rule="evenodd" points="951,604 959,600 951,596 "/>
    </g>
    <text font-size="16.9333" style="fill: #000000; fill-opacity: 1; stroke: none;text-anchor:middle;font-family:sans-serif;font-style:normal;font-weight:normal" x="921" y="560">
      <tspan x="921" y="560">2,3</tspan>
      <tspan xml:space="preserve" x="921" y="581.167"> mm</tspan>
    </text>
    <g>
      <line style="fill: none; stroke-opacity: 1; stroke-width: 2; stroke: #000000" x1="1029" y1="600" x2="1071" y2="600"/>
      <polygon style="fill: #000000; fill-opacity: 1; stroke-opacity: 1; stroke-width: 2; stroke: #000000" fill-rule="evenodd" points="1029,596 1021,600 1029,604 "/>
      <polygon style="fill: #000000; fill-opacity: 1; stroke-opacity: 1; stroke-width: 2; stroke: #000000" fill-rule="evenodd" points="1071,604 1079,600 1071,596 "/>
    </g>
    <text font-size="16.9333" style="fill: #000000; fill-opacity: 1; stroke: none;text-anchor:middle;font-family:sans-serif;font-style:normal;font-weight:normal" x="1041" y="560">
      <tspan x="1041" y="560">2,3</tspan>
      <tspan xml:space="preserve" x="1041" y="581.167"> mm</tspan>
    </text>
    <g>
      <line style="fill: none; stroke-opacity: 1; stroke-width: 2; stroke: #000000" x1="1149" y1="600" x2="1191" y2="600"/>
      <polygon style="fill: #000000; fill-opacity: 1; stroke-opacity: 1; stroke-width: 2; stroke: #000000" fill-rule="evenodd" points="1149,596 1141,600 1149,604 "/>
      <polygon style="fill: #000000; fill-opacity: 1; stroke-opacity: 1; stroke-width: 2; stroke: #000000" fill-rule="evenodd" points="1191,604 1199,600 1191,596 "/>
    </g>
    <text font-size="16.9333" style="fill: #000000; fill-opacity: 1; stroke: none;text-anchor:middle;font-family:sans-serif;font-style:normal;font-weight:normal" x="1160" y="560">
      <tspan x="1160" y="560">2,3</tspan>
      <tspan xml:space="preserve" x="1160" y="581.167"> mm</tspan>
    </text>
    <g>
      <line style="fill: none; stroke-opacity: 1; stroke-width: 2; stroke: #000000" x1="1269" y1="600" x2="1311" y2="600"/>
      <polygon style="fill: #000000; fill-opacity: 1; stroke-opacity: 1; stroke-width: 2; stroke: #000000" fill-rule="evenodd" points="1269,596 1261,600 1269,604 "/>
      <polygon style="fill: #000000; fill-opacity: 1; stroke-opacity: 1; stroke-width: 2; stroke: #000000" fill-rule="evenodd" points="1311,604 1319,600 1311,596 "/>
    </g>
    <text font-size="16.9333" style="fill: #000000; fill-opacity: 1; stroke: none;text-anchor:middle;font-family:sans-serif;font-style:normal;font-weight:normal" x="1280" y="560">
      <tspan x="1280" y="560">2,3</tspan>
      <tspan xml:space="preserve" x="1280" y="581.167"> mm</tspan>
    </text>
    <g>
      <line style="fill: none; stroke-opacity: 1; stroke-width: 2; stroke: #000000" x1="-71" y1="720" x2="-29" y2="720"/>
      <polygon style="fill: #000000; fill-opacity: 1; stroke-opacity: 1; stroke-width: 2; stroke: #000000" fill-rule="evenodd" points="-71,716 -79,720 -71,724 "/>
      <polygon style="fill: #000000; fill-opacity: 1; stroke-opacity: 1; stroke-width: 2; stroke: #000000" fill-rule="evenodd" points="-29,724 -21,720 -29,716 "/>
    </g>
    <text font-size="16.9333" style="fill: #000000; fill-opacity: 1; stroke: none;text-anchor:middle;font-family:sans-serif;font-style:normal;font-weight:normal" x="-60" y="760">
      <tspan x="-60" y="760">1.5</tspan>
      <tspan xml:space="preserve" x="-60" y="781.167"> mm</tspan>
    </text>
    <text font-size="12.8" style="fill: #000000; fill-opacity: 1; stroke: none;text-anchor:start;font-family:sans-serif;font-style:normal;font-weight:normal" x="496.3" y="409.602">
      <tspan x="496.3" y="409.602"></tspan>
    </text>
    <text font-size="22.5778" style="fill: #000000; fill-opacity: 1; stroke: none;text-anchor:start;font-family:sans-serif;font-style:normal;font-weight:normal" x="416.3" y="469.602">
      <tspan x="416.3" y="469.602">MEDTRONIC 3387</tspan>
    </text>
    <g>
      <line style="fill: none; stroke-opacity: 1; stroke-width: 2; stroke: #000000" x1="969" y1="760" x2="1071" y2="760"/>
      <polygon style="fill: #000000; fill-opacity: 1; stroke-opacity: 1; stroke-width: 2; stroke: #000000" fill-rule="evenodd" points="969,756 961,760 969,764 "/>
      <polygon style="fill: #000000; fill-opacity: 1; stroke-opacity: 1; stroke-width: 2; stroke: #000000" fill-rule="evenodd" points="1071,764 1079,760 1071,756 "/>
    </g>
    <text font-size="19.7556" style="fill: #000000; fill-opacity: 1; stroke: none;text-anchor:middle;font-family:sans-serif;font-style:normal;font-weight:normal" x="1000" y="800">
      <tspan x="1000" y="800">4,3</tspan>
      <tspan xml:space="preserve" x="1000" y="824.694"> mm</tspan>
    </text>
    <g>
      <ellipse style="fill: #eab12f; fill-opacity: 1; stroke-opacity: 1; stroke-width: 2; stroke: #000000" cx="-40" cy="1100" rx="40" ry="40"/>
      <text font-size="12.8" style="fill: #000000; fill-opacity: 1; stroke: none;text-anchor:middle;font-family:sans-serif;font-style:normal;font-weight:normal" x="-40" y="1103.88">
        <tspan x="-40" y="1103.88"></tspan>
      </text>
    </g>
    <g>
      <rect style="fill: #eab12f; fill-opacity: 1; stroke-opacity: 1; stroke-width: 2; stroke: #000000" x="-40" y="1060" width="1440" height="80" rx="0" ry="0"/>
      <text font-size="12.8" style="fill: #000000; fill-opacity: 1; stroke: none;text-anchor:middle;font-family:sans-serif;font-style:normal;font-weight:normal" x="680" y="1103.88">
        <tspan x="680" y="1103.88"></tspan>
      </text>
    </g>
    <g>
      <rect style="fill: #d8e5e5; fill-opacity: 1; stroke-opacity: 1; stroke-width: 2; stroke: #000000" x="-20" y="1060" width="60" height="80" rx="0" ry="0"/>
      <text font-size="22.5778" style="fill: #000000; fill-opacity: 1; stroke: none;text-anchor:middle;font-family:sans-serif;font-style:normal;font-weight:normal" x="10" y="1106.85">
        <tspan x="10" y="1106.85">1</tspan>
      </text>
    </g>
    <g>
      <rect style="fill: #d8e5e5; fill-opacity: 1; stroke-opacity: 1; stroke-width: 2; stroke: #000000" x="80" y="1060" width="60" height="80" rx="0" ry="0"/>
      <text font-size="22.5778" style="fill: #000000; fill-opacity: 1; stroke: none;text-anchor:middle;font-family:sans-serif;font-style:normal;font-weight:normal" x="110" y="1106.85">
        <tspan x="110" y="1106.85">2</tspan>
      </text>
    </g>
    <g>
      <rect style="fill: #d8e5e5; fill-opacity: 1; stroke-opacity: 1; stroke-width: 2; stroke: #000000" x="180" y="1060" width="60" height="80" rx="0" ry="0"/>
      <text font-size="22.5778" style="fill: #000000; fill-opacity: 1; stroke: none;text-anchor:middle;font-family:sans-serif;font-style:normal;font-weight:normal" x="210" y="1106.85">
        <tspan x="210" y="1106.85">3</tspan>
      </text>
    </g>
    <g>
      <rect style="fill: #d8e5e5; fill-opacity: 1; stroke-opacity: 1; stroke-width: 2; stroke: #000000" x="280" y="1060" width="60" height="80" rx="0" ry="0"/>
      <text font-size="22.5778" style="fill: #000000; fill-opacity: 1; stroke: none;text-anchor:middle;font-family:sans-serif;font-style:normal;font-weight:normal" x="310" y="1106.85">
        <tspan x="310" y="1106.85">4</tspan>
      </text>
    </g>
    <g>
      <line style="fill: none; stroke-opacity: 1; stroke-width: 2; stroke: #000000" x1="-11" y1="1180" x2="331" y2="1180"/>
      <polygon style="fill: #000000; fill-opacity: 1; stroke-opacity: 1; stroke-width: 2; stroke: #000000" fill-rule="evenodd" points="-11,1176 -19,1180 -11,1184 "/>
      <polygon style="fill: #000000; fill-opacity: 1; stroke-opacity: 1; stroke-width: 2; stroke: #000000" fill-rule="evenodd" points="331,1184 339,1180 331,1176 "/>
    </g>
    <text font-size="22.5778" style="fill: #000000; fill-opacity: 1; stroke: none;text-anchor:start;font-family:sans-serif;font-style:normal;font-weight:normal" x="80" y="1220">
      <tspan x="80" y="1220">7.5 mm</tspan>
    </text>
    <g>
      <line style="fill: none; stroke-opacity: 1; stroke-width: 2; stroke: #000000" x1="-11" y1="1040" x2="31" y2="1040"/>
      <polygon style="fill: #000000; fill-opacity: 1; stroke-opacity: 1; stroke-width: 2; stroke: #000000" fill-rule="evenodd" points="-11,1036 -19,1040 -11,1044 "/>
      <polygon style="fill: #000000; fill-opacity: 1; stroke-opacity: 1; stroke-width: 2; stroke: #000000" fill-rule="evenodd" points="31,1044 39,1040 31,1036 "/>
    </g>
    <g>
      <line style="fill: none; stroke-opacity: 1; stroke-width: 2; stroke: #000000" x1="89" y1="1040" x2="131" y2="1040"/>
      <polygon style="fill: #000000; fill-opacity: 1; stroke-opacity: 1; stroke-width: 2; stroke: #000000" fill-rule="evenodd" points="89,1036 81,1040 89,1044 "/>
      <polygon style="fill: #000000; fill-opacity: 1; stroke-opacity: 1; stroke-width: 2; stroke: #000000" fill-rule="evenodd" points="131,1044 139,1040 131,1036 "/>
    </g>
    <g>
      <line style="fill: none; stroke-opacity: 1; stroke-width: 2; stroke: #000000" x1="189" y1="1040" x2="231" y2="1040"/>
      <polygon style="fill: #000000; fill-opacity: 1; stroke-opacity: 1; stroke-width: 2; stroke: #000000" fill-rule="evenodd" points="189,1036 181,1040 189,1044 "/>
      <polygon style="fill: #000000; fill-opacity: 1; stroke-opacity: 1; stroke-width: 2; stroke: #000000" fill-rule="evenodd" points="231,1044 239,1040 231,1036 "/>
    </g>
    <g>
      <line style="fill: none; stroke-opacity: 1; stroke-width: 2; stroke: #000000" x1="289" y1="1040" x2="331" y2="1040"/>
      <polygon style="fill: #000000; fill-opacity: 1; stroke-opacity: 1; stroke-width: 2; stroke: #000000" fill-rule="evenodd" points="289,1036 281,1040 289,1044 "/>
      <polygon style="fill: #000000; fill-opacity: 1; stroke-opacity: 1; stroke-width: 2; stroke: #000000" fill-rule="evenodd" points="331,1044 339,1040 331,1036 "/>
    </g>
    <g>
      <line style="fill: none; stroke-opacity: 1; stroke-width: 2; stroke: #000000" x1="49" y1="1020" x2="71" y2="1020"/>
      <polygon style="fill: #000000; fill-opacity: 1; stroke-opacity: 1; stroke-width: 2; stroke: #000000" fill-rule="evenodd" points="49,1016 41,1020 49,1024 "/>
      <polygon style="fill: #000000; fill-opacity: 1; stroke-opacity: 1; stroke-width: 2; stroke: #000000" fill-rule="evenodd" points="71,1024 79,1020 71,1016 "/>
    </g>
    <g>
      <line style="fill: none; stroke-opacity: 1; stroke-width: 2; stroke: #000000" x1="149" y1="1020" x2="171" y2="1020"/>
      <polygon style="fill: #000000; fill-opacity: 1; stroke-opacity: 1; stroke-width: 2; stroke: #000000" fill-rule="evenodd" points="149,1016 141,1020 149,1024 "/>
      <polygon style="fill: #000000; fill-opacity: 1; stroke-opacity: 1; stroke-width: 2; stroke: #000000" fill-rule="evenodd" points="171,1024 179,1020 171,1016 "/>
    </g>
    <g>
      <line style="fill: none; stroke-opacity: 1; stroke-width: 2; stroke: #000000" x1="249" y1="1020" x2="271" y2="1020"/>
      <polygon style="fill: #000000; fill-opacity: 1; stroke-opacity: 1; stroke-width: 2; stroke: #000000" fill-rule="evenodd" points="249,1016 241,1020 249,1024 "/>
      <polygon style="fill: #000000; fill-opacity: 1; stroke-opacity: 1; stroke-width: 2; stroke: #000000" fill-rule="evenodd" points="271,1024 279,1020 271,1016 "/>
    </g>
    <text font-size="16.9333" style="fill: #000000; fill-opacity: 1; stroke: none;text-anchor:middle;font-family:sans-serif;font-style:normal;font-weight:normal" x="-4e-05" y="1000">
      <tspan x="-4e-05" y="1000">1,5</tspan>
      <tspan xml:space="preserve" x="-4e-05" y="1021.17"> mm</tspan>
    </text>
    <text font-size="16.9333" style="fill: #000000; fill-opacity: 1; stroke: none;text-anchor:middle;font-family:sans-serif;font-style:normal;font-weight:normal" x="60" y="980">
      <tspan x="60" y="980">0.5</tspan>
      <tspan xml:space="preserve" x="60" y="1001.17"> mm</tspan>
    </text>
    <text font-size="16.9333" style="fill: #000000; fill-opacity: 1; stroke: none;text-anchor:middle;font-family:sans-serif;font-style:normal;font-weight:normal" x="100" y="1000">
      <tspan x="100" y="1000">1,5</tspan>
      <tspan xml:space="preserve" x="100" y="1021.17"> mm</tspan>
    </text>
    <text font-size="16.9333" style="fill: #000000; fill-opacity: 1; stroke: none;text-anchor:middle;font-family:sans-serif;font-style:normal;font-weight:normal" x="160" y="980">
      <tspan x="160" y="980">0,5</tspan>
      <tspan xml:space="preserve" x="160" y="1001.17"> mm</tspan>
    </text>
    <text font-size="16.9333" style="fill: #000000; fill-opacity: 1; stroke: none;text-anchor:middle;font-family:sans-serif;font-style:normal;font-weight:normal" x="260" y="980">
      <tspan x="260" y="980">0,5</tspan>
      <tspan xml:space="preserve" x="260" y="1001.17"> mm</tspan>
    </text>
    <text font-size="16.9333" style="fill: #000000; fill-opacity: 1; stroke: none;text-anchor:middle;font-family:sans-serif;font-style:normal;font-weight:normal" x="200" y="1000">
      <tspan x="200" y="1000">1,5</tspan>
      <tspan xml:space="preserve" x="200" y="1021.17"> mm</tspan>
    </text>
    <text font-size="16.9333" style="fill: #000000; fill-opacity: 1; stroke: none;text-anchor:middle;font-family:sans-serif;font-style:normal;font-weight:normal" x="300" y="1000">
      <tspan x="300" y="1000">1,5</tspan>
      <tspan xml:space="preserve" x="300" y="1021.17"> mm</tspan>
    </text>
    <g>
      <line style="fill: none; stroke-opacity: 1; stroke-width: 2; stroke: #000000" x1="-100" y1="1069" x2="-100" y2="1131"/>
      <polygon style="fill: #000000; fill-opacity: 1; stroke-opacity: 1; stroke-width: 2; stroke: #000000" fill-rule="evenodd" points="-96,1069 -100,1061 -104,1069 "/>
      <polygon style="fill: #000000; fill-opacity: 1; stroke-opacity: 1; stroke-width: 2; stroke: #000000" fill-rule="evenodd" points="-104,1131 -100,1139 -96,1131 "/>
    </g>
    <text font-size="16.9333" style="fill: #000000; fill-opacity: 1; stroke: none;text-anchor:start;font-family:sans-serif;font-style:normal;font-weight:normal" x="-200" y="1100">
      <tspan x="-200" y="1100">1.27 mm </tspan>
    </text>
    <g>
      <line style="fill: none; stroke-opacity: 1; stroke-width: 2; stroke: #000000" x1="749" y1="1180" x2="1391" y2="1180"/>
      <polygon style="fill: #000000; fill-opacity: 1; stroke-opacity: 1; stroke-width: 2; stroke: #000000" fill-rule="evenodd" points="749,1176 741,1180 749,1184 "/>
      <polygon style="fill: #000000; fill-opacity: 1; stroke-opacity: 1; stroke-width: 2; stroke: #000000" fill-rule="evenodd" points="1391,1184 1399,1180 1391,1176 "/>
    </g>
    <g>
      <rect style="fill: #d8e5e5; fill-opacity: 1; stroke-opacity: 1; stroke-width: 2; stroke: #000000" x="900" y="1060" width="60" height="80" rx="0" ry="0"/>
      <text font-size="22.5778" style="fill: #000000; fill-opacity: 1; stroke: none;text-anchor:middle;font-family:sans-serif;font-style:normal;font-weight:normal" x="930" y="1106.85">
        <tspan x="930" y="1106.85">1</tspan>
      </text>
    </g>
    <g>
      <rect style="fill: #d8e5e5; fill-opacity: 1; stroke-opacity: 1; stroke-width: 2; stroke: #000000" x="1020" y="1060" width="60" height="80" rx="0" ry="0"/>
      <text font-size="22.5778" style="fill: #000000; fill-opacity: 1; stroke: none;text-anchor:middle;font-family:sans-serif;font-style:normal;font-weight:normal" x="1050" y="1106.85">
        <tspan x="1050" y="1106.85">2</tspan>
      </text>
    </g>
    <g>
      <rect style="fill: #d8e5e5; fill-opacity: 1; stroke-opacity: 1; stroke-width: 2; stroke: #000000" x="1140" y="1060" width="60" height="80" rx="0" ry="0"/>
      <text font-size="22.5778" style="fill: #000000; fill-opacity: 1; stroke: none;text-anchor:middle;font-family:sans-serif;font-style:normal;font-weight:normal" x="1170" y="1106.85">
        <tspan x="1170" y="1106.85">3</tspan>
      </text>
    </g>
    <g>
      <rect style="fill: #d8e5e5; fill-opacity: 1; stroke-opacity: 1; stroke-width: 2; stroke: #000000" x="1260" y="1060" width="60" height="80" rx="0" ry="0"/>
      <text font-size="22.5778" style="fill: #000000; fill-opacity: 1; stroke: none;text-anchor:middle;font-family:sans-serif;font-style:normal;font-weight:normal" x="1290" y="1106.85">
        <tspan x="1290" y="1106.85">4</tspan>
      </text>
    </g>
    <text font-size="22.5778" style="fill: #000000; fill-opacity: 1; stroke: none;text-anchor:start;font-family:sans-serif;font-style:normal;font-weight:normal" x="1140" y="1220">
      <tspan x="1140" y="1220">401 mm</tspan>
    </text>
    <g>
      <line style="fill: none; stroke-opacity: 1; stroke-width: 2; stroke: #000000" x1="909" y1="960" x2="1371" y2="960"/>
      <polygon style="fill: #000000; fill-opacity: 1; stroke-opacity: 1; stroke-width: 2; stroke: #000000" fill-rule="evenodd" points="909,956 901,960 909,964 "/>
      <polygon style="fill: #000000; fill-opacity: 1; stroke-opacity: 1; stroke-width: 2; stroke: #000000" fill-rule="evenodd" points="1371,964 1379,960 1371,956 "/>
    </g>
    <line style="fill: none; stroke-opacity: 1; stroke-width: 2; stroke: #000000" x1="1380" y1="1060" x2="1380" y2="1140"/>
    <text font-size="22.5778" style="fill: #000000; fill-opacity: 1; stroke: none;text-anchor:start;font-family:sans-serif;font-style:normal;font-weight:normal" x="1060" y="940">
      <tspan x="1060" y="940">16.6 mm</tspan>
    </text>
    <g>
      <line style="fill: none; stroke-opacity: 1; stroke-width: 2; stroke: #000000" x1="909" y1="1040" x2="951" y2="1040"/>
      <polygon style="fill: #000000; fill-opacity: 1; stroke-opacity: 1; stroke-width: 2; stroke: #000000" fill-rule="evenodd" points="909,1036 901,1040 909,1044 "/>
      <polygon style="fill: #000000; fill-opacity: 1; stroke-opacity: 1; stroke-width: 2; stroke: #000000" fill-rule="evenodd" points="951,1044 959,1040 951,1036 "/>
    </g>
    <text font-size="16.9333" style="fill: #000000; fill-opacity: 1; stroke: none;text-anchor:middle;font-family:sans-serif;font-style:normal;font-weight:normal" x="921" y="1000">
      <tspan x="921" y="1000">2,3</tspan>
      <tspan xml:space="preserve" x="921" y="1021.17"> mm</tspan>
    </text>
    <g>
      <line style="fill: none; stroke-opacity: 1; stroke-width: 2; stroke: #000000" x1="1029" y1="1040" x2="1071" y2="1040"/>
      <polygon style="fill: #000000; fill-opacity: 1; stroke-opacity: 1; stroke-width: 2; stroke: #000000" fill-rule="evenodd" points="1029,1036 1021,1040 1029,1044 "/>
      <polygon style="fill: #000000; fill-opacity: 1; stroke-opacity: 1; stroke-width: 2; stroke: #000000" fill-rule="evenodd" points="1071,1044 1079,1040 1071,1036 "/>
    </g>
    <text font-size="16.9333" style="fill: #000000; fill-opacity: 1; stroke: none;text-anchor:middle;font-family:sans-serif;font-style:normal;font-weight:normal" x="1041" y="1000">
      <tspan x="1041" y="1000">2,3</tspan>
      <tspan xml:space="preserve" x="1041" y="1021.17"> mm</tspan>
    </text>
    <g>
      <line style="fill: none; stroke-opacity: 1; stroke-width: 2; stroke: #000000" x1="1149" y1="1040" x2="1191" y2="1040"/>
      <polygon style="fill: #000000; fill-opacity: 1; stroke-opacity: 1; stroke-width: 2; stroke: #000000" fill-rule="evenodd" points="1149,1036 1141,1040 1149,1044 "/>
      <polygon style="fill: #000000; fill-opacity: 1; stroke-opacity: 1; stroke-width: 2; stroke: #000000" fill-rule="evenodd" points="1191,1044 1199,1040 1191,1036 "/>
    </g>
    <text font-size="16.9333" style="fill: #000000; fill-opacity: 1; stroke: none;text-anchor:middle;font-family:sans-serif;font-style:normal;font-weight:normal" x="1160" y="1000">
      <tspan x="1160" y="1000">2,3</tspan>
      <tspan xml:space="preserve" x="1160" y="1021.17"> mm</tspan>
    </text>
    <g>
      <line style="fill: none; stroke-opacity: 1; stroke-width: 2; stroke: #000000" x1="1269" y1="1040" x2="1311" y2="1040"/>
      <polygon style="fill: #000000; fill-opacity: 1; stroke-opacity: 1; stroke-width: 2; stroke: #000000" fill-rule="evenodd" points="1269,1036 1261,1040 1269,1044 "/>
      <polygon style="fill: #000000; fill-opacity: 1; stroke-opacity: 1; stroke-width: 2; stroke: #000000" fill-rule="evenodd" points="1311,1044 1319,1040 1311,1036 "/>
    </g>
    <text font-size="16.9333" style="fill: #000000; fill-opacity: 1; stroke: none;text-anchor:middle;font-family:sans-serif;font-style:normal;font-weight:normal" x="1280" y="1000">
      <tspan x="1280" y="1000">2,3</tspan>
      <tspan xml:space="preserve" x="1280" y="1021.17"> mm</tspan>
    </text>
    <g>
      <line style="fill: none; stroke-opacity: 1; stroke-width: 2; stroke: #000000" x1="-71" y1="1160" x2="-29" y2="1160"/>
      <polygon style="fill: #000000; fill-opacity: 1; stroke-opacity: 1; stroke-width: 2; stroke: #000000" fill-rule="evenodd" points="-71,1156 -79,1160 -71,1164 "/>
      <polygon style="fill: #000000; fill-opacity: 1; stroke-opacity: 1; stroke-width: 2; stroke: #000000" fill-rule="evenodd" points="-29,1164 -21,1160 -29,1156 "/>
    </g>
    <text font-size="16.9333" style="fill: #000000; fill-opacity: 1; stroke: none;text-anchor:middle;font-family:sans-serif;font-style:normal;font-weight:normal" x="-60" y="1200">
      <tspan x="-60" y="1200">1.5</tspan>
      <tspan xml:space="preserve" x="-60" y="1221.17"> mm</tspan>
    </text>
    <text font-size="12.8" style="fill: #000000; fill-opacity: 1; stroke: none;text-anchor:start;font-family:sans-serif;font-style:normal;font-weight:normal" x="496.3" y="849.602">
      <tspan x="496.3" y="849.602"></tspan>
    </text>
    <text font-size="22.5778" style="fill: #000000; fill-opacity: 1; stroke: none;text-anchor:start;font-family:sans-serif;font-style:normal;font-weight:normal" x="416.3" y="909.602">
      <tspan x="416.3" y="909.602">MEDTRONIC 3389</tspan>
    </text>
    <g>
      <line style="fill: none; stroke-opacity: 1; stroke-width: 2; stroke: #000000" x1="969" y1="1200" x2="1071" y2="1200"/>
      <polygon style="fill: #000000; fill-opacity: 1; stroke-opacity: 1; stroke-width: 2; stroke: #000000" fill-rule="evenodd" points="969,1196 961,1200 969,1204 "/>
      <polygon style="fill: #000000; fill-opacity: 1; stroke-opacity: 1; stroke-width: 2; stroke: #000000" fill-rule="evenodd" points="1071,1204 1079,1200 1071,1196 "/>
    </g>
    <text font-size="19.7556" style="fill: #000000; fill-opacity: 1; stroke: none;text-anchor:middle;font-family:sans-serif;font-style:normal;font-weight:normal" x="1000" y="1240">
      <tspan x="1000" y="1240">4,3</tspan>
      <tspan xml:space="preserve" x="1000" y="1264.69"> mm</tspan>
    </text>
    <line style="fill: none; stroke-opacity: 1; stroke-width: 2; stroke-dasharray: 4; stroke: #000000" x1="40" y1="580" x2="40" y2="620"/>
    <line style="fill: none; stroke-opacity: 1; stroke-width: 2; stroke-dasharray: 4; stroke: #000000" x1="80" y1="580" x2="80" y2="620"/>
    <line style="fill: none; stroke-opacity: 1; stroke-width: 2; stroke-dasharray: 4; stroke: #000000" x1="140" y1="580" x2="140" y2="620"/>
    <line style="fill: none; stroke-opacity: 1; stroke-width: 2; stroke-dasharray: 4; stroke: #000000" x1="180" y1="580" x2="180" y2="620"/>
    <line style="fill: none; stroke-opacity: 1; stroke-width: 2; stroke-dasharray: 4; stroke: #000000" x1="240" y1="580" x2="240" y2="620"/>
    <line style="fill: none; stroke-opacity: 1; stroke-width: 2; stroke-dasharray: 4; stroke: #000000" x1="280" y1="580" x2="280" y2="620"/>
    <line style="fill: none; stroke-opacity: 1; stroke-width: 2; stroke-dasharray: 4; stroke: #000000" x1="340" y1="600" x2="340" y2="620"/>
    <line style="fill: none; stroke-opacity: 1; stroke-width: 2; stroke-dasharray: 4; stroke: #000000" x1="-20" y1="600" x2="-20" y2="620"/>
    <line style="fill: none; stroke-opacity: 1; stroke-width: 2; stroke-dasharray: 4; stroke: #000000" x1="900" y1="600" x2="900" y2="620"/>
    <line style="fill: none; stroke-opacity: 1; stroke-width: 2; stroke-dasharray: 4; stroke: #000000" x1="960" y1="600" x2="960" y2="620"/>
    <line style="fill: none; stroke-opacity: 1; stroke-width: 2; stroke-dasharray: 4; stroke: #000000" x1="1020" y1="600" x2="1020" y2="620"/>
    <line style="fill: none; stroke-opacity: 1; stroke-width: 2; stroke-dasharray: 4; stroke: #000000" x1="1080" y1="600" x2="1080" y2="620"/>
    <line style="fill: none; stroke-opacity: 1; stroke-width: 2; stroke-dasharray: 4; stroke: #000000" x1="1140" y1="600" x2="1140" y2="620"/>
    <line style="fill: none; stroke-opacity: 1; stroke-width: 2; stroke-dasharray: 4; stroke: #000000" x1="1200" y1="600" x2="1200" y2="620"/>
    <line style="fill: none; stroke-opacity: 1; stroke-width: 2; stroke-dasharray: 4; stroke: #000000" x1="1260" y1="600" x2="1260" y2="620"/>
    <line style="fill: none; stroke-opacity: 1; stroke-width: 2; stroke-dasharray: 4; stroke: #000000" x1="1320" y1="600" x2="1320" y2="620"/>
    <line style="fill: none; stroke-opacity: 1; stroke-width: 2; stroke-dasharray: 4; stroke: #000000" x1="-20" y1="700" x2="-20" y2="740"/>
    <line style="fill: none; stroke-opacity: 1; stroke-width: 2; stroke-dasharray: 4; stroke: #000000" x1="1400" y1="700" x2="1400" y2="740"/>
    <line style="fill: none; stroke-opacity: 1; stroke-width: 2; stroke-dasharray: 4; stroke: #000000" x1="-80" y1="660" x2="-80" y2="720"/>
    <line style="fill: none; stroke-opacity: 1; stroke-width: 2; stroke-dasharray: 4; stroke: #000000" x1="740" y1="700" x2="740" y2="740"/>
    <line style="fill: none; stroke-opacity: 1; stroke-width: 2; stroke-dasharray: 4; stroke: #000000" x1="340" y1="700" x2="340" y2="740"/>
    <line style="fill: none; stroke-opacity: 1; stroke-width: 2; stroke-dasharray: 4; stroke: #000000" x1="-40" y1="620" x2="-100" y2="620"/>
    <line style="fill: none; stroke-opacity: 1; stroke-width: 2; stroke-dasharray: 4; stroke: #000000" x1="-40" y1="700" x2="-100" y2="700"/>
    <line style="fill: none; stroke-opacity: 1; stroke-width: 2; stroke-dasharray: 4; stroke: #000000" x1="960" y1="700" x2="960" y2="760"/>
    <line style="fill: none; stroke-opacity: 1; stroke-width: 2; stroke-dasharray: 4; stroke: #000000" x1="1080" y1="700" x2="1080" y2="760"/>
    <line style="fill: none; stroke-opacity: 1; stroke-width: 2; stroke-dasharray: 4; stroke: #000000" x1="900" y1="520" x2="900" y2="600"/>
    <line style="fill: none; stroke-opacity: 1; stroke-width: 2; stroke-dasharray: 4; stroke: #000000" x1="1380" y1="520" x2="1380" y2="620"/>
    <line style="fill: none; stroke-opacity: 1; stroke-width: 2; stroke-dasharray: 4; stroke: #000000" x1="40" y1="1020" x2="40" y2="1060"/>
    <line style="fill: none; stroke-opacity: 1; stroke-width: 2; stroke-dasharray: 4; stroke: #000000" x1="80" y1="1020" x2="80" y2="1060"/>
    <line style="fill: none; stroke-opacity: 1; stroke-width: 2; stroke-dasharray: 4; stroke: #000000" x1="140" y1="1020" x2="140" y2="1060"/>
    <line style="fill: none; stroke-opacity: 1; stroke-width: 2; stroke-dasharray: 4; stroke: #000000" x1="180" y1="1020" x2="180" y2="1060"/>
    <line style="fill: none; stroke-opacity: 1; stroke-width: 2; stroke-dasharray: 4; stroke: #000000" x1="240" y1="1020" x2="240" y2="1060"/>
    <line style="fill: none; stroke-opacity: 1; stroke-width: 2; stroke-dasharray: 4; stroke: #000000" x1="280" y1="1020" x2="280" y2="1060"/>
    <line style="fill: none; stroke-opacity: 1; stroke-width: 2; stroke-dasharray: 4; stroke: #000000" x1="340" y1="1040" x2="340" y2="1060"/>
    <line style="fill: none; stroke-opacity: 1; stroke-width: 2; stroke-dasharray: 4; stroke: #000000" x1="-20" y1="1040" x2="-20" y2="1060"/>
    <line style="fill: none; stroke-opacity: 1; stroke-width: 2; stroke-dasharray: 4; stroke: #000000" x1="900" y1="1040" x2="900" y2="1060"/>
    <line style="fill: none; stroke-opacity: 1; stroke-width: 2; stroke-dasharray: 4; stroke: #000000" x1="960" y1="1040" x2="960" y2="1060"/>
    <line style="fill: none; stroke-opacity: 1; stroke-width: 2; stroke-dasharray: 4; stroke: #000000" x1="1020" y1="1040" x2="1020" y2="1060"/>
    <line style="fill: none; stroke-opacity: 1; stroke-width: 2; stroke-dasharray: 4; stroke: #000000" x1="1080" y1="1040" x2="1080" y2="1060"/>
    <line style="fill: none; stroke-opacity: 1; stroke-width: 2; stroke-dasharray: 4; stroke: #000000" x1="1140" y1="1040" x2="1140" y2="1060"/>
    <line style="fill: none; stroke-opacity: 1; stroke-width: 2; stroke-dasharray: 4; stroke: #000000" x1="1200" y1="1040" x2="1200" y2="1060"/>
    <line style="fill: none; stroke-opacity: 1; stroke-width: 2; stroke-dasharray: 4; stroke: #000000" x1="1260" y1="1040" x2="1260" y2="1060"/>
    <line style="fill: none; stroke-opacity: 1; stroke-width: 2; stroke-dasharray: 4; stroke: #000000" x1="1320" y1="1040" x2="1320" y2="1060"/>
    <line style="fill: none; stroke-opacity: 1; stroke-width: 2; stroke-dasharray: 4; stroke: #000000" x1="-20" y1="1140" x2="-20" y2="1180"/>
    <line style="fill: none; stroke-opacity: 1; stroke-width: 2; stroke-dasharray: 4; stroke: #000000" x1="1400" y1="1140" x2="1400" y2="1180"/>
    <line style="fill: none; stroke-opacity: 1; stroke-width: 2; stroke-dasharray: 4; stroke: #000000" x1="-80" y1="1100" x2="-80" y2="1160"/>
    <line style="fill: none; stroke-opacity: 1; stroke-width: 2; stroke-dasharray: 4; stroke: #000000" x1="740" y1="1140" x2="740" y2="1180"/>
    <line style="fill: none; stroke-opacity: 1; stroke-width: 2; stroke-dasharray: 4; stroke: #000000" x1="340" y1="1140" x2="340" y2="1180"/>
    <line style="fill: none; stroke-opacity: 1; stroke-width: 2; stroke-dasharray: 4; stroke: #000000" x1="-40" y1="1060" x2="-100" y2="1060"/>
    <line style="fill: none; stroke-opacity: 1; stroke-width: 2; stroke-dasharray: 4; stroke: #000000" x1="-40" y1="1140" x2="-100" y2="1140"/>
    <line style="fill: none; stroke-opacity: 1; stroke-width: 2; stroke-dasharray: 4; stroke: #000000" x1="960" y1="1140" x2="960" y2="1200"/>
    <line style="fill: none; stroke-opacity: 1; stroke-width: 2; stroke-dasharray: 4; stroke: #000000" x1="1080" y1="1140" x2="1080" y2="1200"/>
    <line style="fill: none; stroke-opacity: 1; stroke-width: 2; stroke-dasharray: 4; stroke: #000000" x1="900" y1="960" x2="900" y2="1040"/>
    <line style="fill: none; stroke-opacity: 1; stroke-width: 2; stroke-dasharray: 4; stroke: #000000" x1="1380" y1="960" x2="1380" y2="1060"/>
  </g>
</svg>
