<?xml version="1.0" encoding="UTF-8" standalone="no"?>
<!DOCTYPE svg PUBLIC "-//W3C//DTD SVG 1.0//EN" "http://www.w3.org/TR/2001/PR-SVG-20010719/DTD/svg10.dtd">
<svg width="48cm" height="19cm" viewBox="-320 499 953 365" xmlns="http://www.w3.org/2000/svg" xmlns:xlink="http://www.w3.org/1999/xlink">
  <g id="Background"/>
  <g id="Background"/>
  <g id="Background"/>
  <g id="Background"/>
  <g id="Background"/>
  <g id="Background"/>
  <g id="MicroProbesCustomRodent">
    <g>
      <ellipse style="fill: #ba3100; fill-opacity: 1; stroke-opacity: 1; stroke-width: 2; stroke: #000000" cx="-140" cy="660" rx="40" ry="40"/>
      <text font-size="12.8" style="fill: #000000; fill-opacity: 1; stroke: none;text-anchor:middle;font-family:sans-serif;font-style:normal;font-weight:normal" x="-140" y="663.881">
        <tspan x="-140" y="663.881"></tspan>
      </text>
    </g>
    <g>
      <rect style="fill: #eab12f; fill-opacity: 1; stroke-opacity: 1; stroke-width: 2; stroke: #000000" x="-140" y="620" width="621.724" height="80" rx="0" ry="0"/>
      <text font-size="12.8" style="fill: #000000; fill-opacity: 1; stroke: none;text-anchor:middle;font-family:sans-serif;font-style:normal;font-weight:normal" x="170.862" y="663.881">
        <tspan x="170.862" y="663.881"></tspan>
      </text>
    </g>
    <text font-size="16.9333" style="fill: #000000; fill-opacity: 1; stroke: none;text-anchor:start;font-family:sans-serif;font-style:normal;font-weight:normal" x="540" y="680">
      <tspan x="540" y="680">0.235 mm </tspan>
    </text>
    <text font-size="22.5778" style="fill: #000000; fill-opacity: 1; stroke: none;text-anchor:start;font-family:sans-serif;font-style:normal;font-weight:normal" x="0" y="520">
      <tspan x="0" y="520">MicroProbes Custom Rodent</tspan>
    </text>
    <g>
      <rect style="fill: #ba3100; fill-opacity: 1; stroke-opacity: 1; stroke-width: 2; stroke: #000000" x="-140" y="620" width="60" height="80" rx="0" ry="0"/>
      <text font-size="12.8" style="fill: #000000; fill-opacity: 1; stroke: none;text-anchor:middle;font-family:sans-serif;font-style:normal;font-weight:normal" x="-110" y="663.881">
        <tspan x="-110" y="663.881"></tspan>
      </text>
    </g>
    <text font-size="16.9333" style="fill: #000000; fill-opacity: 1; stroke: none;text-anchor:start;font-family:sans-serif;font-style:normal;font-weight:normal" x="-320" y="660">
      <tspan x="-320" y="660">0.225 mm </tspan>
    </text>
    <text font-size="16.9333" style="fill: #000000; fill-opacity: 1; stroke: none;text-anchor:start;font-family:sans-serif;font-style:normal;font-weight:normal" x="-160" y="800">
      <tspan x="-160" y="800">0.01125 mm </tspan>
    </text>
    <g>
      <line style="fill: none; stroke-opacity: 1; stroke-width: 2; stroke: #000000" x1="-175.528" y1="760" x2="-84.4721" y2="760"/>
      <polyline style="fill: none; stroke-opacity: 1; stroke-width: 2; stroke: #000000" points="-167.764,755 -177.764,760 -167.764,765 "/>
      <polyline style="fill: none; stroke-opacity: 1; stroke-width: 2; stroke: #000000" points="-92.2361,765 -82.2361,760 -92.2361,755 "/>
    </g>
    <g>
      <line style="fill: none; stroke-opacity: 1; stroke-width: 2; stroke: #000000" x1="-200" y1="695.528" x2="-200" y2="624.472"/>
      <polyline style="fill: none; stroke-opacity: 1; stroke-width: 2; stroke: #000000" points="-205,687.764 -200,697.764 -195,687.764 "/>
      <polyline style="fill: none; stroke-opacity: 1; stroke-width: 2; stroke: #000000" points="-195,632.236 -200,622.236 -205,632.236 "/>
    </g>
    <line style="fill: none; stroke-opacity: 1; stroke-width: 2; stroke-dasharray: 4; stroke: #000000" x1="-140" y1="620" x2="-200" y2="620"/>
    <line style="fill: none; stroke-opacity: 1; stroke-width: 2; stroke-dasharray: 4; stroke: #000000" x1="-140" y1="700" x2="-200" y2="700"/>
    <g>
      <line style="fill: none; stroke-opacity: 1; stroke-width: 2; stroke: #000000" x1="520" y1="695.528" x2="520" y2="624.472"/>
      <polyline style="fill: none; stroke-opacity: 1; stroke-width: 2; stroke: #000000" points="515,687.764 520,697.764 525,687.764 "/>
      <polyline style="fill: none; stroke-opacity: 1; stroke-width: 2; stroke: #000000" points="525,632.236 520,622.236 515,632.236 "/>
    </g>
    <line style="fill: none; stroke-opacity: 1; stroke-width: 2; stroke-dasharray: 4; stroke: #000000" x1="481.724" y1="620" x2="520" y2="620"/>
    <line style="fill: none; stroke-opacity: 1; stroke-width: 2; stroke-dasharray: 4; stroke: #000000" x1="481.724" y1="700" x2="520" y2="700"/>
    <line style="fill: none; stroke-opacity: 1; stroke-width: 2; stroke-dasharray: 4; stroke: #000000" x1="-180" y1="760" x2="-180" y2="660"/>
    <line style="fill: none; stroke-opacity: 1; stroke-width: 2; stroke-dasharray: 4; stroke: #000000" x1="-80" y1="760" x2="-80" y2="700"/>
    <line style="fill: none; stroke-opacity: 1; stroke-width: 2; stroke-dasharray: 4; stroke: #000000" x1="-180" y1="820" x2="-180" y2="660"/>
    <line style="fill: none; stroke-opacity: 1; stroke-width: 2; stroke-dasharray: 4; stroke: #000000" x1="480" y1="820" x2="481.724" y2="700"/>
    <g>
      <line style="fill: none; stroke-opacity: 1; stroke-width: 2; stroke: #000000" x1="-175.528" y1="820" x2="475.528" y2="820"/>
      <polyline style="fill: none; stroke-opacity: 1; stroke-width: 2; stroke: #000000" points="-167.764,815 -177.764,820 -167.764,825 "/>
      <polyline style="fill: none; stroke-opacity: 1; stroke-width: 2; stroke: #000000" points="467.764,825 477.764,820 467.764,815 "/>
    </g>
    <text font-size="16.9333" style="fill: #000000; fill-opacity: 1; stroke: none;text-anchor:start;font-family:sans-serif;font-style:normal;font-weight:normal" x="-160" y="860">
      <tspan x="-160" y="860">13.3 mm </tspan>
    </text>
  </g>
</svg>
